<svg width="41" height="40" viewBox="0 0 41 40" fill="none" xmlns="http://www.w3.org/2000/svg">
    <g clip-path="url(#clip0_89_2368)">
        <path d="M7.21045 30.6967C7.21045 33.2024 12.5221 35.2334 19.0744 35.2334C25.6268 35.2334 30.9384 33.2024 30.9384 30.6967C30.9384 28.191 25.6268 26.16 19.0744 26.16C12.5221 26.1597 7.21045 28.191 7.21045 30.6967Z" fill="#E26969"/>
        <path d="M19.3806 36C13.2578 36 6.75 34.1412 6.75 30.6967C6.75 27.2522 13.2578 25.3934 19.3806 25.3934C25.5034 25.3934 32.0112 27.2518 32.0112 30.6967C32.0112 34.1416 25.5037 36 19.3806 36ZM19.3806 26.9263C12.5051 26.9263 8.28322 29.1221 8.28322 30.6964C8.28322 32.2706 12.5051 34.4664 19.3806 34.4664C26.2561 34.4664 30.478 32.2706 30.478 30.6964C30.478 29.1221 26.2561 26.9263 19.3806 26.9263Z" fill="#4C2F1B"/>
        <path d="M28.4538 26.2497C28.1839 26.2497 27.9317 26.1777 27.7338 26.0157C27.3738 25.7457 27.1936 25.2957 27.2837 24.8094L28.292 18.4724C28.3821 17.9503 28.724 17.4821 29.21 17.248C29.498 17.104 31.0284 16.4198 32.4687 16.4198C33.3327 16.4198 34.035 16.6539 34.539 17.1398C35.4573 18.0042 35.6374 19.4984 35.0611 21.5868C34.2691 24.4313 33.099 24.9353 31.2625 25.4216C30.6684 25.5837 29.9484 25.7635 29.012 26.1416L28.85 26.1955C28.724 26.2317 28.58 26.2497 28.4538 26.2497ZM30.3981 22.8473C30.6141 22.7934 30.8301 22.7395 31.0103 22.7033C32.1985 22.4153 32.1985 22.4153 32.5585 21.1732C32.9185 19.8953 32.7745 19.409 32.7025 19.337C32.7025 19.337 32.6124 19.265 32.3063 19.265C31.9644 19.265 31.46 19.3729 30.938 19.553L30.3981 22.8473Z" fill="#F96B6B"/>
        <path d="M32.4688 17.0143C33.099 17.0143 33.7109 17.1583 34.1429 17.5725C34.899 18.2744 35.025 19.5708 34.5032 21.4431C33.7648 24.0536 32.8107 24.4317 31.1004 24.8637C30.5063 25.0257 29.7502 25.2237 28.778 25.6017C28.7418 25.6198 28.706 25.6198 28.6879 25.6379C28.6159 25.656 28.5258 25.6741 28.4538 25.6741C28.3098 25.6741 28.1839 25.6379 28.0757 25.5482C27.8959 25.4042 27.8058 25.1701 27.8416 24.9002L28.85 18.5631C28.9039 18.2212 29.138 17.9151 29.4441 17.7711C29.6782 17.6623 31.1363 17.0143 32.4688 17.0143ZM29.6963 23.6393C30.2723 23.4591 30.7404 23.3513 31.1543 23.2612C32.5766 22.9193 32.6667 22.9012 33.1168 21.335C33.369 20.471 33.5488 19.3367 33.0806 18.9224C32.9004 18.7604 32.6305 18.7064 32.3063 18.7064C31.7303 18.7064 30.9919 18.9224 30.434 19.1384L29.6963 23.6393ZM32.4688 15.88C30.9025 15.88 29.2643 16.6004 28.9582 16.7621C28.3102 17.0682 27.8239 17.6984 27.7161 18.4184L26.7081 24.7555C26.6003 25.4397 26.8521 26.1235 27.3923 26.5197C27.6983 26.7357 28.0583 26.8616 28.4542 26.8616C28.6343 26.8616 28.8145 26.8438 28.9943 26.7896C29.0663 26.7715 29.1383 26.7534 29.2103 26.7176C30.1105 26.3572 30.8309 26.1774 31.3888 26.0334C33.3693 25.5113 34.7192 24.9534 35.6016 21.8024C36.2496 19.4981 36.0159 17.8059 34.9175 16.7795C34.305 16.168 33.4768 15.88 32.4688 15.88ZM31.4427 19.9847C31.7307 19.8946 32.0006 19.8407 32.217 19.8407C32.217 20.0386 32.1808 20.4167 32.001 21.0289C31.929 21.263 31.785 21.767 31.6949 21.9291C31.587 21.983 31.3526 22.0372 31.1008 22.0911L31.4427 19.9847Z" fill="#4C2F1B"/>
        <path d="M30.6505 18.2024L19.5246 18.4003H8.23659C8.23659 18.4003 7.40841 31.4344 19.5246 31.4344C31.6408 31.4344 30.6505 18.2024 30.6505 18.2024Z" fill="#FF7171"/>
        <path d="M19.4538 32.2014C15.8152 32.2014 12.9178 31.0765 10.8413 28.8581C7.46428 25.2602 7.35158 19.9548 7.3975 18.4143L7.39924 18.3464C7.42776 17.9527 7.7648 17.6341 8.16585 17.6341H19.4538C19.4538 17.6341 30.5658 17.4358 30.5662 17.4358C30.9958 17.4358 31.3182 17.7402 31.3471 18.144C31.3916 18.8226 31.6771 24.8835 27.9937 28.8591C25.9342 31.0769 23.0608 32.2014 19.4538 32.2014ZM8.93245 19.3603C8.98289 20.9906 9.37976 25.0783 11.9721 27.8188C13.7523 29.7092 16.2754 30.6678 19.4716 30.6678C22.6267 30.6678 25.114 29.7148 26.8639 27.8358C29.4566 25.0393 29.8149 20.8497 29.8486 19.1784L29.8525 18.9836L19.4862 19.1673H8.92654L8.93245 19.3603Z" fill="#4C2F1B"/>
        <path d="M8.09277 18.5986C8.09277 21.6609 13.1467 24.1436 19.3808 24.1436C25.6149 24.1436 30.6688 21.6609 30.6688 18.5986C30.6688 15.536 25.6152 13.0536 19.3808 13.0536C13.1467 13.0536 8.09277 15.536 8.09277 18.5986Z" fill="#D6E6EA"/>
        <path d="M8.09277 18.5986C8.09277 21.6609 13.1467 24.1436 19.3808 24.1436C25.6149 24.1436 30.6688 21.6609 30.6688 18.5986C30.6688 15.536 25.6152 13.0536 19.3808 13.0536C13.1467 13.0536 8.09277 15.536 8.09277 18.5986Z" fill="#FCDCD6"/>
        <path d="M19.2006 15.808C14.0155 15.808 10.3432 17.6084 8.90283 19.6428C9.06492 22.6852 13.2597 24.1437 19.3985 24.1437C25.0514 24.1437 29.0663 23.2797 29.9122 20.5791C29.0482 18.1663 24.9794 15.808 19.2006 15.808Z" fill="#724E3B"/>
        <path d="M19.3808 24.9099C12.6211 24.9099 7.32617 22.1377 7.32617 18.5986C7.32617 15.0595 12.6211 12.287 19.3808 12.287C26.1404 12.287 31.4354 15.0595 31.4354 18.5986C31.4354 22.1377 26.1404 24.9099 19.3808 24.9099ZM19.3808 13.8202C13.0872 13.8202 8.85939 16.2908 8.85939 18.5986C8.85939 20.8588 13.1804 23.3767 19.3808 23.3767C25.5811 23.3767 29.9018 20.8584 29.9018 18.5986C29.9022 16.2908 25.6743 13.8202 19.3808 13.8202Z" fill="#4C2F1B"/>
        <path d="M12.2153 20.3089C12.2153 20.3089 16.7162 19.9308 17.6341 19.7329C18.5343 19.5346 20.1186 19.5708 21.1447 19.5346C22.1708 19.4988 25.4115 19.9127 25.4115 19.9127C25.4115 19.9127 22.0091 19.9666 21.8651 19.9127C21.7211 19.8588 18.2644 20.3628 18.2644 20.3628L12.2153 20.3089ZM12.7197 18.5085C12.7197 18.5085 15.2039 17.1763 16.1044 16.9962C17.0045 16.7983 18.5885 16.8341 19.615 16.7983C20.6411 16.7621 22.7117 17.0143 22.7117 17.0143C22.7117 17.0143 20.4793 17.2303 20.3353 17.1763C20.1913 17.1224 17.2205 17.9506 17.2205 17.9506L12.7197 18.5085ZM16.4821 22.487C16.4821 22.487 17.7242 22.415 18.6244 22.217C19.5245 22.0191 21.1089 22.055 22.135 22.0191C23.1611 22.001 23.9353 21.857 23.9353 21.857C23.9353 21.857 22.9451 22.2713 22.639 22.3791C22.495 22.433 20.2807 22.7934 20.2807 22.7934L16.4821 22.487Z" fill="#9B6F5C"/>
        <path d="M15.8519 11.5593C15.726 11.5593 15.582 11.5054 15.4738 11.4153C15.2398 11.1993 15.2036 10.839 15.4199 10.6052C16.1218 9.81322 15.8881 9.18295 15.7079 8.89495C15.654 8.80487 15.5639 8.71478 15.4738 8.60695C15.0418 8.08487 14.2137 7.13078 15.3479 5.60035C15.5281 5.34817 15.8881 5.29426 16.1399 5.47443C16.3921 5.65426 16.446 6.01426 16.2658 6.26643C15.6718 7.07652 15.9239 7.36487 16.3378 7.85078C16.4457 7.97669 16.5538 8.10295 16.6439 8.24695C16.878 8.60695 17.5441 9.88522 16.2658 11.3433C16.1761 11.4873 16.014 11.5593 15.8519 11.5593Z" fill="#4C2F1B"/>
        <path d="M20.0292 10.191C19.9033 10.191 19.7589 10.137 19.6511 10.047C19.417 9.83095 19.3812 9.47095 19.5972 9.23687C20.2994 8.44487 20.0654 7.81461 19.8852 7.52661C19.8313 7.43652 19.7412 7.34678 19.6511 7.23861C19.2191 6.71652 18.3909 5.76209 19.5252 4.232C19.7054 3.97982 20.0654 3.92591 20.3172 4.10609C20.5694 4.28626 20.6233 4.64626 20.4431 4.89843C19.849 5.70852 20.1008 5.99652 20.5151 6.48278C20.6229 6.60869 20.7311 6.73496 20.8212 6.87896C21.0553 7.23896 21.7214 8.51722 20.4431 9.9753C20.353 10.137 20.1909 10.191 20.0292 10.191Z" fill="#4C2F1B"/>
        <path d="M24.2058 11.5593C24.0799 11.5593 23.9359 11.5054 23.8277 11.4153C23.5936 11.1993 23.5575 10.839 23.7735 10.6052C24.4757 9.81322 24.2416 9.18295 24.0615 8.89495C24.0075 8.80487 23.9175 8.71478 23.8274 8.60695C23.3954 8.08487 22.5672 7.13078 23.7015 5.60035C23.8816 5.34817 24.2416 5.29426 24.4938 5.47443C24.746 5.65426 24.7999 6.01426 24.6197 6.26643C24.0256 7.07652 24.2775 7.36487 24.6917 7.85078C24.7995 7.97669 24.9077 8.10295 24.9978 8.24695C25.2319 8.60695 25.898 9.88522 24.6197 11.3433C24.5296 11.4873 24.3679 11.5593 24.2058 11.5593Z" fill="#4C2F1B"/>
        <path d="M19.5609 25.9798C18.5707 26.016 17.7967 26.8442 17.5446 27.5642C17.1484 28.6984 17.8684 29.3464 18.4987 29.3464C18.8948 29.3464 19.3627 28.6984 19.1828 28.0863C18.8767 27.1137 20.371 25.9436 19.5609 25.9798ZM19.5609 29.4543C20.5512 29.4181 21.2531 28.5903 21.5053 27.8699C21.9014 26.7356 21.1814 26.0876 20.4969 26.0876C20.2447 26.0876 19.7049 26.4115 19.8667 27.3478C20.0468 28.3562 18.7508 29.4904 19.5609 29.4543Z" fill="white"/>
    </g>
    <defs>
        <clipPath id="clip0_89_2368">
            <rect width="29.2094" height="32" fill="white" transform="translate(6.75 4)"/>
        </clipPath>
    </defs>
</svg>
