<svg width="41" height="40" viewBox="0 0 41 40" fill="none" xmlns="http://www.w3.org/2000/svg">
    <g clip-path="url(#clip0_89_2418)">
        <path d="M9.87269 13.4253C9.87269 13.4253 22.7466 21.3275 21.2134 27.7979C21.2134 27.7979 9.48486 23.8889 9.87269 13.4253Z" fill="#359A60"/>
        <path d="M21.7356 28.7585L20.9607 28.5058C20.8427 28.4719 8.72659 24.2934 9.11408 13.4086L9.1647 12.145L10.243 12.8019C10.7824 13.1391 23.5722 21.0584 21.9039 27.9665L21.7356 28.7585ZM10.6309 14.8069C11.1702 22.086 18.1296 25.7085 20.5899 26.7532C20.6573 22.4906 14.3043 17.2841 10.6309 14.8069Z" fill="#4C2F1B"/>
        <path d="M5.67676 15.7675C5.67676 15.7675 8.84471 30.3589 22.376 30.3589C22.3931 30.3592 18.3657 15.936 5.67676 15.7675Z" fill="#33AC64"/>
        <path d="M22.376 31.1006C8.40668 31.1006 4.98598 16.0879 4.95212 15.936L4.75 15.0261L5.67682 15.0428C18.77 15.2114 23.0501 30.022 23.084 30.1739L23.3535 31.1174L22.376 31.1006C22.3931 31.1006 22.376 31.1006 22.376 31.1006ZM6.65426 16.5594C7.56433 19.6259 11.1871 28.9944 21.3483 29.584C20.219 26.5343 16.0569 17.2841 6.65426 16.5594Z" fill="#4C2F1B"/>
        <path d="M31.5093 14.3692C31.5093 14.3692 19.0564 22.9119 20.9268 29.2978C20.9268 29.2974 32.4358 24.7989 31.5093 14.3692Z" fill="#359A60"/>
        <path d="M20.4549 30.2919L20.219 29.5166C18.2138 22.6927 30.5655 14.1332 31.0877 13.7625L32.1326 13.0379L32.2506 14.3018C33.2109 25.1528 21.3311 29.9379 21.1964 29.9886L20.4549 30.2919ZM30.8183 15.7842C27.2963 18.4464 21.2132 23.973 21.4994 28.236C23.8927 27.0398 30.6667 23.0634 30.8183 15.7842Z" fill="#4C2F1B"/>
        <path d="M35.9075 16.0879C35.9075 16.0879 20.9942 23.0127 21.8536 30.1906C21.8704 30.1906 35.0142 27.4272 35.9075 16.0879Z" fill="#33AC64"/>
        <path d="M21.2305 31.0835L21.1293 30.2748C20.2192 22.642 34.981 15.7001 35.6041 15.4135L36.7502 14.8746L36.6489 16.1381C35.7221 27.8991 22.1573 30.8814 22.0055 30.9149L21.2305 31.0835ZM34.9977 17.3682C31.7118 19.0698 22.9494 24.1081 22.5787 29.23C25.3082 28.4213 33.5487 25.3549 34.9977 17.3682Z" fill="#4C2F1B"/>
        <path d="M20.5226 9.85347C21.3147 9.85347 22.0897 10.2409 22.5278 11.0329L31.3408 27.1242C32.1664 28.6409 31.0713 30.5111 29.3356 30.5111H11.6928C9.95718 30.5111 8.86174 28.6576 9.68768 27.1242L18.5178 11.0329C18.9552 10.2409 19.7302 9.85347 20.5226 9.85347ZM20.5226 8C19.0062 8 17.6241 8.82551 16.8994 10.1397L8.06967 26.231C7.36207 27.5284 7.37883 29.0618 8.13704 30.3254C8.89526 31.5893 10.2267 32.3474 11.6925 32.3474H29.3353C30.8182 32.3474 32.1493 31.5893 32.8907 30.3254C33.6489 29.0618 33.666 27.5284 32.9581 26.231L24.1454 10.1397C23.4207 8.80875 22.0223 8 20.5226 8Z" fill="#4C2F1B"/>
        <path d="M17.3041 21.53C17.2367 21.53 17.1861 21.53 17.1187 21.5132C16.4617 21.4291 16.0739 20.8559 16.0404 20.7886C15.9224 20.62 15.973 20.384 16.1416 20.2832C16.3099 20.1652 16.5458 20.2158 16.6471 20.3844C16.7144 20.4856 16.9504 20.7383 17.2203 20.7889C17.4056 20.8057 17.6078 20.7383 17.8102 20.553C17.9617 20.4182 18.1977 20.435 18.3325 20.5868C18.4672 20.7383 18.4505 20.9743 18.2989 21.109C17.9952 21.3952 17.658 21.53 17.3041 21.53Z" fill="#F9E39E"/>
        <path d="M22.4941 10.797L31.88 27.0904C32.7562 28.6067 31.6611 30.5107 29.9083 30.5107H11.1198C9.36743 30.5107 8.272 28.6067 9.1482 27.0904L18.5508 10.8137C19.4274 9.28068 21.6179 9.28068 22.4941 10.797Z" fill="#FAF7BD"/>
        <path d="M13.6642 18.9016L8.17066 27.1071C7.29446 28.6234 8.38989 30.5275 10.1423 30.5275L22.0391 30.5107C17.9444 28.1686 14.6584 20.7718 13.6642 18.9016Z" fill="#3AB26C"/>
        <path d="M17.3543 23.552C17.2869 23.552 17.2363 23.552 17.1689 23.5353C16.512 23.4508 16.1241 22.878 16.0906 22.8106C15.9726 22.642 16.0232 22.4061 16.1919 22.3052C16.3605 22.1872 16.5964 22.2378 16.6973 22.4064C16.7647 22.5077 17.0007 22.7604 17.2702 22.811C17.4555 22.8448 17.6577 22.7604 17.8601 22.575C18.012 22.4403 18.2476 22.4571 18.3827 22.6089C18.5175 22.7604 18.5007 22.9963 18.3489 23.1311C18.0455 23.4002 17.7083 23.552 17.3543 23.552ZM17.0848 21.53C17.0174 21.53 16.9668 21.53 16.8995 21.5132C16.2425 21.4291 15.8546 20.8559 15.8211 20.7886C15.7031 20.62 15.7537 20.384 15.9224 20.2832C16.0906 20.1652 16.3266 20.2158 16.4278 20.3844C16.4952 20.4856 16.7312 20.7383 17.0007 20.7889C17.1861 20.8057 17.3882 20.7383 17.5906 20.553C17.7425 20.4182 17.9781 20.435 18.1132 20.5868C18.248 20.7383 18.2312 20.9743 18.0794 21.109C17.7589 21.3952 17.4217 21.53 17.0848 21.53Z" fill="#F9E39E"/>
        <path d="M20.1009 29.0112C14.1863 28.607 10.8833 22.1534 10.7485 21.8672L11.7427 21.3617C11.7766 21.4291 14.8939 27.5288 20.185 27.8824L20.1009 29.0112Z" fill="#2D9556"/>
        <path d="M10.2601 31.1006L9.2998 30.5278C9.40104 30.376 11.7095 26.602 18.0455 24.9168L18.3317 25.995C12.4171 27.579 10.2769 31.0668 10.2601 31.1006Z" fill="#2D9556"/>
        <path d="M13.479 19.1376C13.5296 19.1376 13.597 19.1714 13.6308 19.2217C14.8442 21.3614 17.8942 28.2698 22.0396 30.5107H10.4796C8.62597 30.5107 7.46317 28.6066 8.38999 27.0904L13.3442 19.2217C13.3777 19.1711 13.4283 19.1376 13.479 19.1376ZM13.479 17.2841C12.7714 17.2841 12.1308 17.638 11.7604 18.2443L6.8226 26.113V26.1298C6.04763 27.3933 6.01377 28.9267 6.73847 30.2074C7.47993 31.5387 8.91223 32.3642 10.4796 32.3642L22.0392 32.3474H29.3865L22.9155 28.8765C19.9161 27.2757 17.3545 22.3387 15.9728 19.6936C15.6866 19.1547 15.4506 18.6827 15.2314 18.312C14.8774 17.6715 14.2033 17.2841 13.479 17.2841Z" fill="#4C2F1B"/>
        <path d="M27.7179 19.8618C25.1399 24.7817 19.3598 29.7522 18.3149 30.5107H29.9084C31.6612 30.5107 32.773 28.6067 31.8801 27.0904L27.7179 19.8618Z" fill="#3AB26C"/>
        <path d="M20.3543 32.0103L20.0845 30.932C27.4146 29.0618 30.2624 22.9286 30.2963 22.8609L31.3076 23.3161C31.1896 23.5855 28.2067 30.0053 20.3543 32.0103Z" fill="#2D9556"/>
        <path d="M27.684 31.6396L26.6057 31.3868C27.7346 26.5008 25.6621 21.5638 25.645 21.5132L26.6731 21.0751C26.7401 21.2943 28.8971 26.3992 27.684 31.6396Z" fill="#2D9556"/>
        <path d="M24.4148 21.3446C24.3475 21.3446 24.2968 21.3446 24.2295 21.3279C23.5725 21.2438 23.1847 20.671 23.1511 20.6032C23.0332 20.435 23.0838 20.199 23.2524 20.0978C23.4206 19.9798 23.6566 20.0305 23.7579 20.199C23.8252 20.3003 24.0612 20.553 24.3311 20.6032C24.5164 20.62 24.7185 20.5526 24.921 20.3673C25.0725 20.2326 25.3085 20.2493 25.4432 20.4011C25.578 20.553 25.5612 20.7886 25.4094 20.9237C25.1057 21.2099 24.7688 21.3446 24.4148 21.3446ZM20.8255 26.0624C20.7582 26.0624 20.7075 26.0624 20.6402 26.0457C19.9828 25.9615 19.5954 25.3888 19.5618 25.3214C19.4439 25.1528 19.4945 24.9168 19.6631 24.816C19.8317 24.698 20.0677 24.7486 20.1686 24.9172C20.2359 25.0184 20.4719 25.2711 20.7414 25.3217C20.9268 25.3385 21.1289 25.2711 21.3314 25.0858C21.4832 24.951 21.7188 24.9678 21.8536 25.1193C21.9883 25.2711 21.9716 25.5067 21.8201 25.6418C21.4996 25.9277 21.1628 26.0624 20.8255 26.0624ZM24.4655 23.4676C24.3981 23.4676 24.3475 23.4676 24.2801 23.4508C23.6231 23.3667 23.2353 22.7939 23.2018 22.7265C23.0838 22.5579 23.1344 22.322 23.303 22.2211C23.4716 22.1031 23.7076 22.1537 23.8085 22.3223C23.8758 22.4236 24.1118 22.6763 24.3813 22.7269C24.5667 22.7436 24.7688 22.6763 24.9713 22.4909C25.1231 22.3562 25.3588 22.3729 25.4939 22.5244C25.6286 22.6763 25.6119 22.9119 25.46 23.047C25.1563 23.3161 24.8191 23.4676 24.4655 23.4676Z" fill="#F9E39E"/>
        <path d="M27.7178 20.3673C27.8525 20.3673 27.9876 20.4346 28.0717 20.5526L31.9979 27.0733C32.908 28.5896 31.7619 30.4936 29.925 30.4936H18.3319C19.3767 29.7861 25.2578 25.2533 27.347 20.6029C27.3977 20.4517 27.5495 20.3673 27.7178 20.3673ZM27.7178 18.5309C26.8245 18.5309 26.0156 19.0534 25.6449 19.8622C23.8251 23.8725 18.5002 28.1522 17.27 28.9945L12.3496 32.381H29.9083C31.4586 32.381 32.8909 31.5555 33.6323 30.2413C34.357 28.9438 34.3399 27.4276 33.5649 26.1469L29.6388 19.6262C29.2345 18.9355 28.5098 18.5309 27.7178 18.5309Z" fill="#4C2F1B"/>
        <path d="M19.5452 14.6554C19.4779 14.6554 19.3934 14.6554 19.3263 14.6386C18.669 14.5207 18.315 13.9479 18.2648 13.8805C18.1635 13.7123 18.2142 13.4763 18.3995 13.3751C18.5678 13.2738 18.8038 13.3245 18.905 13.493C18.9724 13.5943 19.1916 13.8637 19.4611 13.9144C19.6465 13.9482 19.8486 13.8805 20.0511 13.6955C20.2026 13.5608 20.4385 13.5943 20.5733 13.7461C20.708 13.8979 20.6745 14.1336 20.523 14.2686C20.2022 14.5207 19.8821 14.6554 19.5452 14.6554ZM20.7922 12.0103C20.7248 12.0103 20.6407 12.0103 20.5729 11.9935C19.916 11.8755 19.562 11.3027 19.5114 11.2354C19.4101 11.0668 19.4607 10.8308 19.6294 10.73C19.798 10.6287 20.0339 10.6793 20.1348 10.8479C20.2022 10.9492 20.4214 11.2186 20.6909 11.2692C20.8763 11.3031 21.0784 11.2357 21.2809 11.05C21.4327 10.9153 21.6684 10.9488 21.8035 11.1006C21.9382 11.2525 21.9047 11.4881 21.7528 11.6228C21.4491 11.8752 21.129 12.0103 20.7922 12.0103ZM22.5613 14.588C22.494 14.588 22.4098 14.588 22.3424 14.5713C21.6855 14.4533 21.3315 13.8805 21.2809 13.8131C21.1796 13.6445 21.2306 13.4086 21.4156 13.3077C21.5842 13.2065 21.8202 13.2574 21.9211 13.4257C21.9885 13.5269 22.2074 13.7964 22.4772 13.847C22.6626 13.8805 22.8647 13.8131 23.0672 13.6278C23.219 13.493 23.4546 13.5266 23.5897 13.6784C23.7245 13.8302 23.691 14.0658 23.5391 14.2009C23.2187 14.4533 22.8985 14.588 22.5613 14.588ZM22.3253 17.0817C21.7354 17.0817 21.2805 16.6775 21.2303 16.6268C21.0784 16.4921 21.0784 16.2561 21.2135 16.1047C21.3483 15.9528 21.5842 15.9528 21.7357 16.0879C21.8202 16.172 22.1065 16.3574 22.376 16.3406C22.5613 16.3239 22.7299 16.1888 22.8814 15.9699C22.9994 15.8013 23.2354 15.7675 23.4037 15.8855C23.5723 16.0034 23.6061 16.2394 23.4881 16.408C23.2016 16.8125 22.8476 17.0485 22.4433 17.082H22.3253V17.0817ZM18.433 16.9302C18.2142 16.9302 18.0288 16.8796 17.8431 16.7783C17.2531 16.475 17.0849 15.801 17.0681 15.7336C17.0175 15.5312 17.1355 15.3291 17.338 15.2785C17.5401 15.2282 17.7422 15.3458 17.7761 15.5483C17.8099 15.6662 17.9279 15.9863 18.1806 16.1043C18.3489 16.1884 18.5514 16.1717 18.8041 16.0705C18.9895 16.0031 19.2087 16.0872 19.2928 16.2726C19.3602 16.4579 19.2761 16.6771 19.0907 16.7612C18.8544 16.8967 18.6352 16.9302 18.433 16.9302ZM23.9263 19.1878C23.3702 19.1878 22.9488 18.851 22.8985 18.8004C22.7467 18.6657 22.7132 18.4297 22.8479 18.2779C22.9827 18.126 23.2019 18.0925 23.3705 18.2276C23.4546 18.295 23.758 18.4803 24.0275 18.4297C24.2129 18.3958 24.3644 18.2611 24.5162 18.0251C24.6174 17.8569 24.8531 17.7892 25.0217 17.9072C25.1899 18.0084 25.2577 18.244 25.1397 18.4126C24.8869 18.8339 24.5497 19.0866 24.1455 19.154C24.0781 19.1711 24.0107 19.1878 23.9263 19.1878ZM20.8428 19.5418C20.7754 19.5418 20.7248 19.5418 20.6574 19.525C20.0001 19.4406 19.6126 18.8678 19.5791 18.8004C19.4611 18.6318 19.5117 18.3958 19.6803 18.295C19.8486 18.177 20.0846 18.2276 20.1858 18.3962C20.2532 18.4974 20.4892 18.7501 20.7586 18.8007C20.944 18.8175 21.1461 18.7501 21.3486 18.5648C21.5001 18.43 21.7361 18.4468 21.8708 18.5983C22.0056 18.7501 21.9888 18.9857 21.8373 19.1208C21.5165 19.407 21.1796 19.5418 20.8428 19.5418ZM20.7077 21.4459C20.6403 21.4459 20.5897 21.4459 20.5223 21.4291C19.865 21.3446 19.4775 20.7718 19.444 20.7045C19.326 20.5359 19.3766 20.2999 19.5452 20.199C19.7138 20.0811 19.9498 20.1317 20.0507 20.3003C20.1181 20.4015 20.3541 20.6542 20.6236 20.7048C20.8089 20.7216 21.011 20.6542 21.2135 20.4689C21.3654 20.3341 21.601 20.3509 21.7357 20.5024C21.8705 20.6542 21.8537 20.8898 21.7022 21.0249C21.3818 21.3111 21.0449 21.4459 20.7077 21.4459ZM20.7583 23.7541C20.6909 23.7541 20.6403 23.7541 20.5729 23.7374C19.916 23.6533 19.5281 23.0805 19.4946 23.0128C19.3766 22.8445 19.4272 22.6086 19.5958 22.5073C19.7641 22.3893 20.0001 22.44 20.1013 22.6086C20.1687 22.7098 20.4047 22.9625 20.6742 23.0128C20.8595 23.0295 21.0617 22.9621 21.2641 22.7768C21.416 22.6421 21.6516 22.6588 21.7867 22.8107C21.9215 22.9625 21.9047 23.1981 21.7528 23.3328C21.4324 23.6194 21.1123 23.7541 20.7583 23.7541ZM17.4891 19.3732C17.4217 19.3732 17.3711 19.3732 17.3037 19.3564C16.6464 19.2723 16.2589 18.6995 16.2254 18.6318C16.1074 18.4636 16.158 18.2276 16.3267 18.1264C16.4953 18.0084 16.7312 18.059 16.8321 18.2276C16.8995 18.3288 17.1355 18.5815 17.405 18.6318C17.5903 18.6486 17.7925 18.5812 17.9949 18.3958C18.1468 18.2611 18.3824 18.2779 18.5175 18.4297C18.6523 18.5815 18.6355 18.8171 18.4837 18.9519C18.1803 19.2217 17.8431 19.3732 17.4891 19.3732Z" fill="#F9E39E"/>
    </g>
    <defs>
        <clipPath id="clip0_89_2418">
            <rect width="32" height="24.381" fill="white" transform="translate(4.75 8)"/>
        </clipPath>
    </defs>
</svg>
