<svg width="41" height="40" viewBox="0 0 41 40" fill="none" xmlns="http://www.w3.org/2000/svg">
    <g clip-path="url(#clip0_89_2326)">
        <path d="M30.3018 29.5069C29.8005 29.8069 29.5837 29.4528 27.7632 30.1568C25.9427 30.8612 23.6905 31.3387 22.7709 31.1149C21.8516 30.891 20.4021 31.0812 19.277 29.7194C18.1519 28.3574 15.718 26.6166 14.5213 25.2976C13.3243 23.9789 12.2374 21.2367 11.6551 19.1609C11.0728 17.0857 10.2967 13.0899 11.4973 11.6912C12.6976 10.2919 13.8265 8.93601 14.3243 7.66661C14.8217 6.39721 15.0197 5.60052 15.8223 5.31281C16.6253 5.02511 19.5994 5.56877 20.2155 5.29597C20.8318 5.02349 24.7197 4.33987 26.418 5.35817C28.1161 6.37615 30.3828 9.76835 31.2182 10.3344C32.0532 10.9004 34.0695 12.6004 34.4635 14.2067C34.8572 15.8134 34.9982 18.9292 35.2603 19.839C35.5222 20.7491 35.0588 23.3546 34.7172 24.2385C34.376 25.1226 32.8173 26.7358 31.7603 28.0489C30.7029 29.3624 30.8018 29.2062 30.3018 29.5069Z" fill="#FAAD91"/>
        <path d="M35.2601 19.8402C35.5223 20.75 35.0582 23.3559 34.717 24.2397C34.3758 25.1235 32.8168 26.737 31.7598 28.0502C30.703 29.3636 30.8025 29.2065 30.3012 29.5075C29.7999 29.8081 29.5831 29.4531 27.7626 30.1574C26.0672 30.8128 23.9988 31.2719 22.9797 31.1511C23.2088 30.8407 23.4538 30.5423 23.7146 30.2578C23.7146 30.2578 31.5452 28.1791 32.6823 21.3873C32.9406 19.8431 32.9931 16.4484 27.7296 10.392C25.1142 7.38242 22.4768 5.91992 20.4849 5.20941C21.5623 4.90939 24.8822 4.43831 26.4182 5.35941C28.1162 6.37707 30.3829 9.76959 31.2183 10.3356C32.0534 10.9016 34.0696 12.6016 34.4636 14.2079C34.8573 15.8146 34.998 18.9301 35.2601 19.8402Z" fill="#E16E48"/>
        <path d="M9.59883 31.9815C8.85125 31.9446 8.22163 32.5466 7.38462 31.3125C6.5476 30.0784 5.58291 28.3904 5.36613 26.74C5.14966 25.0896 4.75886 23.9154 5.59134 22.2793C6.42349 20.6428 6.37975 18.5168 7.15519 17.9964C7.93096 17.4761 9.90052 17.052 10.8487 16.056C11.7968 15.0601 14.8536 13.9064 16.539 14.6619C18.2246 15.4175 18.6974 16.4461 18.6974 16.4461C19.6774 16.3736 20.6275 16.7993 21.226 17.5782C22.2091 18.8939 23.2088 21.3659 22.9979 22.5854C22.7863 23.8049 23.2351 26.0628 22.5549 26.9237C21.8747 27.7845 20.4826 29.3922 20.1443 30.1581C19.806 30.924 17.4793 32.485 16.1757 33.0912C14.8721 33.6974 12.9618 33.6766 11.444 33.3031C9.92644 32.9298 10.3467 32.0188 9.59883 31.9815Z" fill="#FFD9C3"/>
        <path d="M22.9981 22.5855C22.7872 23.805 23.2353 26.0629 22.5555 26.9237C21.875 27.7845 20.4829 29.3922 20.1446 30.1581C19.8063 30.924 17.4799 32.485 16.176 33.0912C14.8726 33.6974 12.9621 33.6767 11.4445 33.3031C10.4099 33.0484 10.2757 32.5443 10.0586 32.2375C11.8166 31.9028 14.3509 30.9004 16.988 28.1004C21.817 22.9739 21.4845 19.156 21.4845 19.156L22.9631 21.5649C23.0305 21.9009 23.0422 22.2456 22.9981 22.5855Z" fill="#FCA573"/>
        <path d="M13.1068 17.6987C12.6739 17.0844 11.3796 18.52 10.552 19.4156C9.99887 20.0684 9.56983 20.8171 9.28564 21.6242C9.28564 21.6242 10.2857 20.8392 11.4697 20.0052C12.6544 19.1716 12.8414 19.2228 13.1668 18.7358C13.4053 18.3785 13.5394 18.3127 13.1068 17.6987Z" fill="white"/>
        <path d="M35.3769 24.7154C34.0921 26.8829 33.1203 27.2331 32.6864 28.0755C32.2525 28.9178 32.0788 29.6037 31.2544 30.0985C31.1096 30.186 30.9599 30.265 30.8066 30.3356C30.6721 30.4383 30.5315 30.5329 30.3863 30.6191C29.5613 31.1139 28.8672 30.9486 27.9125 30.9392C26.9579 30.9302 26.1934 31.6212 23.6591 31.7447C22.5654 31.7907 21.4779 31.5594 20.4973 31.0727C20.2763 31.49 19.9682 31.8548 19.5942 32.1432C18.3648 33.1255 17.8071 32.6697 17.2954 33.1472C16.7844 33.6248 15.1742 34.3473 14.6551 34.2459C14.1353 34.1442 13.4863 34.0207 12.9733 34.1623C12.0643 34.3097 11.132 34.1856 10.2934 33.8053C9.79794 33.5704 9.41524 33.1495 9.22794 32.6344C8.68938 32.7419 8.12975 32.6344 7.66928 32.3343C6.90971 31.8189 6.32027 31.0889 5.97645 30.2378C5.83322 29.7275 5.38928 29.2396 5.03445 28.8492C4.67962 28.4588 4.46834 26.7141 4.61545 26.0321C4.76192 25.3494 4.08078 25.1109 4.29044 23.5571C4.49977 22.0032 5.42071 21.5636 5.77036 20.9477C6.11968 20.3311 5.67023 19.6008 6.34749 18.405C7.02475 17.2088 8.58536 16.7458 9.13916 16.53C9.43436 16.4157 9.68971 16.1137 10.0329 15.767C10.017 15.5804 10.0073 15.3931 10.0031 15.2056C9.95154 11.3109 11.7782 10.243 12.307 9.75018C12.8359 9.25804 13.4619 8.82551 13.6104 7.51367C13.7588 6.20183 14.3061 5.3507 15.2173 4.80316C16.1292 4.25626 17.1428 4.1717 18.3839 4.64958C19.6253 5.12747 20.3013 4.78048 20.9863 4.54364C21.6714 4.3068 23.4724 3.20037 26.9284 5.05328C29.1313 6.23423 29.9038 7.69186 31.2207 9.17056C32.5376 10.6493 34.1083 11.5704 34.7321 13.4654C35.3559 15.3604 35.3552 17.1071 35.8141 18.6353C36.2733 20.1636 36.6628 22.5482 35.3769 24.7154ZM11.9788 32.868C12.5306 32.8349 13.0844 32.8867 13.6207 33.0219C14.1314 33.1385 15.9121 32.1156 16.3878 31.7009C16.8628 31.2862 17.4276 31.7304 18.579 30.8858C19.7306 30.0411 19.5874 29.1084 19.8988 28.5592C20.2106 28.0094 21.0485 28.0547 21.6545 26.9882C22.2598 25.9219 21.7883 24.4649 21.662 23.9258C21.5356 23.3863 22.2488 22.8067 22.1059 21.6186C21.9633 20.4309 21.3233 19.3766 21.1263 18.7695C20.0664 15.4842 18.3278 18.1137 18.3943 17.9964L17.7423 19.1466C18.0281 18.9833 18.3709 18.9525 18.6811 19.062C19.2919 19.2431 19.5608 19.6773 19.1574 20.1788C18.754 20.68 18.6137 20.4393 17.9503 20.3502C17.2873 20.2611 16.7105 21.0695 16.7105 21.0695L16.6405 21.0899L15.401 23.2778C15.6869 23.1148 16.0294 23.0837 16.3395 23.1936C16.9503 23.3747 17.2193 23.8085 16.8162 24.31C16.413 24.8113 16.2721 24.5705 15.6091 24.4818C14.9458 24.3923 14.369 25.201 14.369 25.201L14.299 25.2211L12.9331 27.6274C13.2192 27.4644 13.5618 27.4333 13.8719 27.5428C14.4827 27.7239 14.7517 28.1578 14.3485 28.6593C13.9454 29.1608 13.8045 28.9201 13.1415 28.8313C12.4785 28.7419 11.901 29.5503 11.901 29.5503L11.8307 29.571L10.9256 31.1689C11.157 30.7597 9.63884 33.1213 11.9788 32.868ZM7.66053 19.1372C7.05586 20.2038 7.52864 20.8948 7.21691 21.4443C6.90517 21.9935 6.02863 22.3535 5.89739 23.7709C5.76582 25.1881 6.44049 25.4388 6.32967 26.058C6.21852 26.6774 6.25999 28.7222 6.6239 29.0967C7.0066 29.4916 7.3368 29.9345 7.60576 30.4144C8.58082 32.2284 9.7529 30.6418 9.89159 30.45L9.81382 30.5871C9.73119 30.8155 9.83715 31.0695 10.0578 31.1709C10.2788 31.2729 10.541 31.1884 10.6609 30.9771C10.7811 30.7656 10.7189 30.4973 10.5183 30.3599C10.3177 30.2229 10.0452 30.2618 9.89159 30.45L10.738 28.9571L10.7192 28.8867C10.7192 28.8867 11.1162 27.9776 10.6969 27.4596C10.2775 26.9415 9.99691 26.9457 10.2202 26.3431C10.4438 25.7405 10.9558 25.745 11.4273 26.1714C11.6816 26.3781 11.8323 26.6859 11.8401 27.0138L13.2047 24.6078L13.1859 24.5378C13.1859 24.5378 13.5825 23.628 13.1632 23.11C12.7439 22.5919 12.4632 22.5961 12.6868 21.9935C12.9104 21.3909 13.4221 21.3954 13.8939 21.8221C14.148 22.0285 14.299 22.3366 14.3067 22.6642L15.5482 20.4762L15.5294 20.4063C15.5294 20.4063 15.926 19.4968 15.5067 18.9784C15.0877 18.4607 14.8067 18.4649 15.0303 17.8623C15.2539 17.2597 15.7659 17.2642 16.2374 17.6906C16.4918 17.8976 16.6425 18.2054 16.6499 18.5329L17.2844 17.4145C17.4014 17.2085 18.1924 14.8456 15.0054 15.3352C14.3706 15.4327 13.1441 15.4832 12.0478 15.976C10.9519 16.4688 10.8229 17.376 10.2921 17.5467C9.76165 17.7178 8.2652 18.0709 7.66053 19.1372ZM14.1434 9.85256C14.1324 9.86326 14.1211 9.8746 14.1097 9.88464C13.5932 10.3489 11.8942 11.3594 11.657 14.6603C12.0381 14.5099 12.4312 14.3923 12.832 14.3084C12.819 14.1847 12.807 14.0602 12.7967 13.9358C12.6703 12.4137 14.1113 12.3839 14.2562 13.7657C14.2643 13.8406 14.274 13.9232 14.2837 14.0045C14.2964 14.0006 14.3119 13.9977 14.3239 13.9938C14.6198 13.897 14.9231 13.8263 15.2312 13.7832C14.7944 12.495 14.4312 11.1825 14.1434 9.85256ZM15.5909 6.59386C15.4791 6.88772 15.3988 7.19259 15.3508 7.50298C15.3103 7.76606 15.2487 8.02525 15.1664 8.27797C15.5793 10.1477 16.1188 11.9873 16.7799 13.7842C16.8013 13.8451 16.8139 13.9083 16.8178 13.9721C16.8482 13.986 16.8794 13.9948 16.9095 14.01C18.3956 14.775 18.8492 15.6715 18.8492 15.6715C18.8492 15.6715 19.8962 15.5312 21.2822 16.4633C22.0178 16.9577 22.4792 17.9948 22.6325 18.6548C22.7854 19.3147 23.4053 20.426 23.4902 21.7162C23.5751 23.0063 23.0298 23.7988 23.1315 24.3816C23.1396 24.4277 23.15 24.4818 23.161 24.5394C24.3276 25.7716 25.6121 26.8867 26.9968 27.8684C27.6873 28.3492 27.2103 29.7719 26.0395 29.0873C25.0314 28.4669 24.1014 27.7275 23.2696 26.8858C23.2129 27.1806 23.1101 27.4644 22.9646 27.7265C22.2861 28.9227 21.4248 28.9172 21.0748 29.5338C21.0592 29.5619 21.045 29.5918 21.0304 29.6219C22.0955 30.1665 23.291 30.403 24.4831 30.3049C26.989 30.0936 27.7699 29.4103 28.7116 29.3837C29.0791 29.3731 29.4048 29.3838 29.7165 29.3734C28.9268 27.7181 26.5386 22.8637 23.2342 17.4521C20.9167 13.6753 18.3638 10.0486 15.5909 6.59289V6.59386ZM34.3711 18.9924C33.9758 17.5606 34.0425 15.906 33.4984 14.1328C32.9547 12.3603 31.4401 11.5461 30.1954 10.1934C28.9511 8.84074 28.2453 7.4884 26.1147 6.45098C22.7744 4.82292 20.9549 5.93875 20.2695 6.18854C19.3978 6.5174 18.4351 6.51156 17.5667 6.17299C17.3816 6.11143 17.1927 6.06089 17.0012 6.02201C18.2906 7.71811 21.1033 11.5587 24.3085 16.8077C26.6335 20.5932 28.7628 24.495 30.6883 28.498C30.7635 28.3551 30.8403 28.2086 30.9278 28.0541C31.1144 27.755 31.3448 27.4855 31.6105 27.2542C31.2184 25.5875 30.7269 23.9456 30.1374 22.3379C29.8542 21.5649 31.0697 20.5848 31.4874 21.7628C31.9923 23.1816 32.4077 24.6305 32.7314 26.1011C33.0872 25.6799 33.4145 25.2354 33.7104 24.7701C35.0604 22.6684 34.7661 20.4225 34.3711 18.9911V18.9924ZM32.6572 22.3515C32.4537 20.2478 31.9022 18.1928 31.0253 16.2699C30.0451 14.2673 28.7719 12.4221 27.2476 10.7957C26.4041 9.93356 27.1977 8.70661 28.0878 9.62642C29.5127 11.1508 30.756 12.8352 31.7943 14.6447C33.5658 17.6384 34.0062 20.8362 34.1158 22.1791C34.2389 23.6967 32.7995 23.7288 32.6572 22.3515ZM29.223 16.6625C29.6902 17.5185 28.5807 18.5871 27.839 17.2347C27.2903 16.23 26.6837 15.2587 26.0217 14.3253C24.3464 11.9997 22.2971 9.96791 19.9575 8.31231C19.2686 7.8341 19.7475 6.41469 20.9157 7.0954C22.055 7.75893 24.5035 9.55708 27.571 13.978C28.1692 14.8427 28.7207 15.7385 29.223 16.6625Z" fill="#440911"/>
    </g>
    <defs>
        <clipPath id="clip0_89_2326">
            <rect width="32" height="32" fill="white" transform="translate(4.25 4)"/>
        </clipPath>
    </defs>
</svg>
