<svg width="41" height="40" viewBox="0 0 41 40" fill="none" xmlns="http://www.w3.org/2000/svg">
    <g clip-path="url(#clip0_89_2445)">
        <path d="M29.6714 14.2272C29.6951 14.3652 27.7232 11.5812 26.423 10.6229C24.4476 9.1679 21.4537 7.9158 18.6313 7.99773C15.8087 8.07935 12.7069 8.56521 9.26488 12.1567C6.43324 15.1115 5.38374 19.1284 5.50665 22.8834C5.61579 26.2211 9.29528 30.8172 11.1578 30.7632C13.8518 30.6851 15.6889 28.3943 15.6269 26.4954C15.5648 24.5961 14.7572 23.1337 14.6836 20.8894C14.61 18.6454 14.5652 17.1609 16.8402 16.0583C19.1159 14.9554 21.1493 15.6224 22.7752 16.9145C24.4015 18.2063 24.7958 19.2398 26.9563 18.8839C30.8739 18.2389 29.7914 14.9208 29.6714 14.2272Z" fill="#FEE35D"/>
        <path d="M19.0322 6.03221C18.207 6.19864 16.335 7.89596 15.3405 9.16663C13.8317 11.0947 12.4951 14.0521 12.4951 16.8796C12.4951 19.7074 12.8904 22.829 16.3753 26.392C19.2421 29.3235 23.2225 30.5055 26.9734 30.5055C30.3065 30.5055 35 26.9726 35 25.1066C35 22.4059 32.7666 20.4932 30.8695 20.4932C28.9731 20.4932 27.4899 21.2536 25.2479 21.2536C23.0058 21.2536 21.522 21.2501 20.4885 18.936C19.4547 16.6226 20.178 14.6087 21.5137 13.0234C22.8493 11.4381 23.8927 11.0771 23.6002 8.90289C23.0705 4.9587 18.964 6.04597 19.0322 6.03221Z" fill="#FEE35D"/>
        <path d="M34.9995 25.1066C34.9995 26.9726 30.306 30.5055 26.9729 30.5055C23.222 30.5055 19.2429 29.3235 16.3758 26.392C12.8899 22.829 12.4946 19.7077 12.4946 16.8796V16.8716C12.782 18.8032 13.7701 21.5536 16.7458 24.2543C22.1635 29.1721 26.8925 28.1994 29.9985 27.0049C33.7698 25.5544 32.8717 21.8967 32.574 20.9704C34.071 21.809 34.9986 23.3911 34.9995 25.1066Z" fill="#EAA824"/>
        <path d="M18.3986 9.08535C17.8698 8.5854 16.8888 10.2744 16.2576 11.3322C15.846 12.0898 15.5714 12.914 15.4453 13.7667C15.4453 13.7667 16.2624 12.7773 17.2483 11.6984C18.2341 10.6194 18.4235 10.6274 18.6463 10.0804C18.8105 9.67875 18.9273 9.58497 18.3986 9.08535Z" fill="white"/>
        <path d="M36.25 24.6969C36.25 28.8521 30.8568 31.4286 28.4733 31.6776C26.0894 31.9269 21.2824 31.6363 17.938 29.4339C17.4156 29.0879 16.9131 28.7128 16.433 28.3108C15.7801 30.1611 14.3324 31.9241 11.6067 32.0028C7.46025 32.1228 4.71247 26.7991 4.38568 24.4207C4.05858 22.0426 4.19172 17.2214 6.28016 13.8102C8.36828 10.3986 11.608 7.91709 14.5347 7.28752C15.0398 7.17902 15.5199 7.08044 15.9939 6.99594C17.5795 5.65966 19.2186 5 20.1964 5C21.9526 5 22.6222 5.12515 23.9591 6.74565C24.3579 7.21615 24.6491 7.7689 24.8114 8.36423C28.706 10.2379 30.6856 13.7135 30.7394 15.3631C30.797 17.1209 30.6946 17.794 29.1211 19.1799C29.0629 19.2311 29.004 19.2782 28.946 19.3249C29.2866 19.2568 29.6326 19.2187 29.9799 19.2116C32.2783 19.2116 36.25 20.5415 36.25 24.6969ZM9.27279 12.407C6.44116 15.3619 5.63299 19.1217 5.75589 22.8761C5.86536 26.2137 8.68707 30.5126 11.1493 30.5126C13.4769 30.5126 14.9805 28.9196 15.3086 27.2818C13.3757 25.3425 12.0545 23.056 11.6679 20.9566C11.1247 18.0059 10.7902 15.8455 12.6716 11.4823C13.0429 10.6239 13.5118 9.81093 14.0687 9.05909C12.5448 9.64674 10.9503 10.6569 9.27279 12.407ZM29.4985 15.7523C29.4335 14.5415 28.9352 13.8639 28.1411 12.8234C27.581 12.0876 26.921 11.4337 26.1807 10.8806C25.7614 10.573 25.327 10.2875 24.878 10.0254C24.6693 11.1699 24.0804 12.2108 23.2066 12.9786C22.3331 13.6309 21.6744 14.529 21.3144 15.5581C21.8338 15.7735 22.3203 16.0615 22.7588 16.4136C24.3841 17.7057 24.7874 18.9892 26.9479 18.6336C28.8235 18.3247 29.559 16.8851 29.4985 15.7523ZM21.7013 18.713C22.456 20.095 23.8429 20.2755 25.3379 20.0851C24.3937 19.8358 23.5398 19.323 22.8753 18.607C22.4032 18.0303 21.8277 17.5473 21.1787 17.1818C21.2577 17.7198 21.435 18.2389 21.7013 18.713ZM25.9096 21.4767C26.1202 21.8701 26.236 22.3076 26.2479 22.7538C26.3193 23.8612 25.6404 24.6829 24.9974 24.5043C24.3547 24.3257 24.7474 23.3968 24.7474 22.7538C24.7096 22.3096 24.5813 21.8775 24.3694 21.4844C22.7041 21.4041 21.3749 21.0094 20.4751 19.4053C20.4547 19.4418 20.4303 19.4779 20.4137 19.5144C20.1496 20.0969 20.1362 21.0968 19.4612 20.9992C18.7858 20.9016 18.4882 19.8838 19.0096 18.9095C19.2083 18.502 19.5018 18.1484 19.8657 17.8779C19.3764 16.0065 19.8859 14.362 21.0141 13.0241C22.3504 11.4378 23.5395 10.9264 23.2472 8.75087C23.0702 7.43443 22.5156 6.7879 21.7468 6.50048C19.642 5.71343 18.3771 6.94729 17.9601 7.24399C17.0719 7.8534 16.2743 8.58475 15.5903 9.41661C14.0815 11.345 12.7449 14.0521 12.7449 16.8796C12.7449 19.7074 13.1402 22.829 16.6251 26.392C19.4919 29.3235 23.2223 30.2555 26.9728 30.2555C30.306 30.2555 34.7495 27.3228 34.7495 25.1066C34.7495 22.4059 32.7664 20.7431 30.8693 20.7431C29.1669 20.7428 27.7932 21.3513 25.9096 21.4767Z" fill="#440911"/>
    </g>
    <defs>
        <clipPath id="clip0_89_2445">
            <rect width="32" height="29.0064" fill="white" transform="translate(4.25 5)"/>
        </clipPath>
    </defs>
</svg>
