<svg width="41" height="40" viewBox="0 0 41 40" fill="none" xmlns="http://www.w3.org/2000/svg">
    <g clip-path="url(#clip0_89_2455)">
        <path d="M5.62793 22.884V26.4734H34.0091C34.8069 26.4734 35.4156 22.8207 35.4156 22.8207L5.62793 22.884Z" fill="#F2C05A"/>
        <path d="M5.62766 27.3514C5.1358 27.3514 4.75 26.9656 4.75 26.4734V22.8836C4.75 22.3996 5.14371 22.0059 5.62766 22.0059L35.4366 21.9427C35.6843 21.9427 35.9407 22.0602 36.0895 22.2422C36.2607 22.4475 36.3264 22.697 36.2765 22.9465C35.5491 27.3514 34.4456 27.3514 34.0304 27.3514H5.62766ZM33.7636 25.6165L33.8225 25.4983C33.9556 25.2322 34.1091 24.7601 34.3205 23.9673L34.3924 23.698L6.52654 23.762V25.6165H6.74011H33.7636Z" fill="#4C2F1B"/>
        <path d="M27.7746 5.1243C27.1659 4.80934 26.4101 4.89347 25.9064 5.3555L5.64893 22.8839H9.4278V32.9812C9.4278 34.1778 10.3932 35.1432 11.5898 35.1432C12.7864 35.1432 13.7518 34.1778 13.7518 32.9812V22.8839H15.9979V27.6491C15.9979 28.8665 17.0053 29.8743 18.2231 29.8743C19.4406 29.8743 20.4484 28.8669 20.4484 27.6491V22.8839H23.6603C23.9752 24.0805 25.046 24.9621 26.3263 24.9621C27.607 24.9621 28.6983 24.0805 28.9924 22.8839L35.4578 22.8631C37.4936 11.2543 30.5244 6.51001 27.7746 5.1243Z" fill="#FFDE8A"/>
        <path d="M21.0992 12.7655C22.3375 12.7655 23.3245 11.7789 23.3245 10.5402C23.3245 9.67946 22.8416 8.96575 22.1487 8.58823L19.021 11.296C19.336 12.1568 20.1334 12.7655 21.0992 12.7655Z" fill="#FF5C5C"/>
        <path d="M21.0993 13.2063C19.9865 13.2063 18.979 12.4926 18.6011 11.4431C18.5382 11.2751 18.5799 11.0864 18.727 10.9605L21.8547 8.2524C21.9805 8.12656 22.1905 8.10534 22.3372 8.18948C23.2188 8.6515 23.7438 9.55397 23.7438 10.5197C23.7653 12.0097 22.5688 13.2063 21.0993 13.2063ZM19.5457 11.4222C19.8606 11.9892 20.4485 12.3459 21.0993 12.3459C22.0859 12.3459 22.8837 11.5484 22.8837 10.5614C22.8837 9.99478 22.6108 9.46984 22.1697 9.13402L19.5457 11.4222Z" fill="#4C2F1B"/>
        <path d="M28.4674 14.6758C28.2153 15.7465 28.9082 16.8381 29.9786 17.069C30.7343 17.2369 31.4689 16.964 31.9309 16.4182L30.1677 13.1225C29.349 13.2275 28.6561 13.815 28.4674 14.6758Z" fill="#FF5C5C"/>
        <path d="M30.4194 17.5518C30.2515 17.5518 30.0627 17.531 29.8948 17.4889C28.5932 17.1951 27.7537 15.8936 28.0474 14.5711C28.2783 13.5845 29.097 12.8287 30.1256 12.7029C30.2935 12.6821 30.4827 12.7658 30.5664 12.9337L32.3297 16.2085C32.4138 16.3764 32.3926 16.5652 32.2668 16.6914C31.7839 17.2368 31.1122 17.5518 30.4194 17.5518ZM28.887 14.7599C28.8028 15.1799 28.8661 15.5994 29.0966 15.9353C29.3278 16.2919 29.6636 16.544 30.0832 16.6281C30.5452 16.7331 31.0277 16.6073 31.4056 16.3132L29.9574 13.6054C29.4119 13.7941 29.0128 14.2137 28.887 14.7599Z" fill="#4C2F1B"/>
        <path d="M11.5687 36C9.8925 36 8.52837 34.6362 8.52837 32.9597V23.7404H5.62787C5.25394 23.7404 4.9379 23.5179 4.82284 23.173C4.68477 22.8261 4.78617 22.4435 5.07093 22.2087L25.3323 4.67705C25.8019 4.27651 26.3973 4.05502 27.0082 4.05502C27.4105 4.05502 27.7985 4.14707 28.1616 4.329C30.6217 5.56909 38.48 10.5776 36.2968 22.9516C36.2303 23.3668 35.8607 23.6775 35.4364 23.6775L29.575 23.6991L29.5157 23.8141C28.8904 25.0247 27.6601 25.7769 26.3049 25.7769C24.9501 25.7769 23.7197 25.0251 23.0941 23.8141L23.0341 23.6983H21.305V27.5858C21.305 29.2854 19.9225 30.6679 18.2229 30.6679C16.5233 30.6679 15.1412 29.2854 15.1412 27.5862V23.6987H14.6296V32.9179C14.6102 34.6165 13.237 36 11.5687 36ZM26.9866 5.81215C26.7889 5.81215 26.6059 5.8819 26.457 6.01421L7.97214 22.0059H9.40639C9.64981 22.0059 9.86194 22.0926 10.0032 22.2501C10.1762 22.4234 10.2632 22.6398 10.2632 22.884V32.9812C10.2632 33.701 10.8489 34.2868 11.5684 34.2868C12.3004 34.2868 12.8735 33.7133 12.8735 32.9812V22.8836C12.8735 22.3997 13.2672 22.0059 13.7512 22.0059H15.9973C16.2404 22.0059 16.4525 22.0926 16.5942 22.2501C16.7671 22.4234 16.8541 22.6398 16.8541 22.884V27.6491C16.8541 28.3919 17.4585 28.9963 18.2014 28.9963C18.9442 28.9963 19.5486 28.3919 19.5486 27.6491V22.8628C19.5486 22.3784 19.9423 21.9847 20.4263 21.9847H23.6381C24.0394 21.9847 24.3781 22.2497 24.4809 22.6438C24.6956 23.4794 25.4456 24.0633 26.3042 24.0633C27.1628 24.0633 27.9128 23.4794 28.1275 22.6434C28.2303 22.2501 28.569 21.9851 28.9699 21.9851L34.6979 21.9635L34.7234 21.7801C36.1534 11.5437 30.0557 7.26437 27.3677 5.89952C27.2376 5.84019 27.1121 5.81215 26.9866 5.81215Z" fill="#4C2F1B"/>
        <path d="M35.4365 22.8207C37.5359 11.0022 30.2305 6.32089 27.6065 5.04053C27.0816 4.78848 26.4517 4.87262 26.0109 5.2505L24.4155 6.63621C27.9003 9.239 33.757 14.0465 31.9726 22.8422L35.4365 22.8207Z" fill="#FFB07B"/>
        <path d="M31.9728 23.6987C31.7179 23.6987 31.4652 23.5782 31.2976 23.3765C31.1304 23.1763 31.061 22.9059 31.1117 22.6524C32.6484 15.0551 28.3141 10.6409 23.8718 7.32512C23.6618 7.17951 23.5346 6.93285 23.5162 6.64342C23.5 6.38238 23.6097 6.13321 23.8175 5.96027L25.4161 4.57169C25.8429 4.20315 26.3826 4 26.9355 4C27.2872 4 27.6377 4.08449 27.9502 4.24413C30.4627 5.46948 38.4757 10.4356 36.2547 22.9724C36.1882 23.388 35.8186 23.6987 35.3947 23.6987H31.9728ZM26.9478 5.75712C26.8029 5.75712 26.6605 5.80962 26.5458 5.90526L25.7828 6.58301L25.9842 6.74085C27.9977 8.32216 34.1251 13.1344 33.0202 21.7018L32.9893 21.9427H34.6781L34.7036 21.7586C36.1602 11.3269 29.9378 7.13276 27.1951 5.81357C27.1221 5.77726 27.0359 5.75712 26.9478 5.75712Z" fill="#4C2F1B"/>
        <path d="M31.973 22.8207C31.973 22.8207 31.7839 25.1297 30.9443 26.4734H34.03C34.03 26.4734 35.1216 25.8855 35.4366 22.8207H31.973Z" fill="#E2803D"/>
        <path d="M30.9445 27.3514C30.6212 27.3514 30.339 27.182 30.1887 26.8983C30.0316 26.6182 30.0377 26.2835 30.202 26.02C30.8064 25.0355 31.0552 23.2877 31.0948 22.7527C31.1275 22.3101 31.5043 21.9639 31.9523 21.9639H35.4159C35.6729 21.9639 35.903 22.0653 36.0483 22.2425C36.2313 22.4442 36.3072 22.6751 36.2745 22.9185C35.9185 26.2918 34.6615 27.1187 34.4131 27.2503C34.3124 27.3161 34.1696 27.3514 34.0301 27.3514H30.9445ZM32.7289 23.8706C32.6459 24.2862 32.5423 24.8036 32.3776 25.34L32.2928 25.6165H33.7008L33.7648 25.5252C33.9093 25.3185 34.1826 24.8403 34.3857 23.9605L34.4461 23.6987H32.7634L32.7289 23.8706Z" fill="#4C2F1B"/>
        <path d="M15.3052 18.4334C15.3052 19.2334 15.9534 19.8817 16.7534 19.8817C17.5534 19.8817 18.2017 19.2334 18.2017 18.4334C18.2017 17.6334 17.5534 16.9852 16.7534 16.9852C15.9534 16.9852 15.3052 17.6334 15.3052 18.4334Z" fill="#FF5C5C"/>
        <path d="M16.7537 20.3229C15.725 20.3229 14.8643 19.4833 14.8643 18.4338C14.8643 17.3843 15.7038 16.5444 16.7537 16.5444C17.8032 16.5444 18.6428 17.3839 18.6428 18.4338C18.6428 19.483 17.8032 20.3229 16.7537 20.3229ZM16.7537 17.426C16.187 17.426 15.7462 17.888 15.7462 18.4335C15.7462 18.9792 16.2079 19.4409 16.7537 19.4409C17.2995 19.4409 17.7612 18.9789 17.7612 18.4335C17.7612 17.8877 17.3203 17.426 16.7537 17.426Z" fill="#4C2F1B"/>
        <path d="M23.8911 19.8821H20.8472C20.6793 19.8821 20.5322 19.735 20.5322 19.5671V18.8742C20.5322 18.7063 20.6793 18.5593 20.8472 18.5593H23.8911C24.0591 18.5593 24.2061 18.7063 24.2061 18.8742V19.5671C24.227 19.735 24.0799 19.8821 23.8911 19.8821Z" fill="#3DE25C"/>
        <path d="M23.555 20.3229H21.2039C20.5952 20.3229 20.1123 19.84 20.1123 19.2313C20.1123 18.6226 20.5952 18.1397 21.2039 18.1397H23.555C24.1637 18.1397 24.6466 18.6226 24.6466 19.2313C24.6466 19.84 24.1637 20.3229 23.555 20.3229ZM21.2039 19.0001C21.0781 19.0001 20.9731 19.1051 20.9731 19.2309C20.9731 19.3571 21.0781 19.4621 21.2039 19.4621H23.555C23.6808 19.4621 23.7858 19.3571 23.7858 19.2309C23.7858 19.1051 23.6808 19.0001 23.555 19.0001H21.2039Z" fill="#4C2F1B"/>
        <path d="M25.9899 16.7119L24.3734 14.9487C24.3104 14.8858 24.3104 14.7808 24.3734 14.7179L25.1079 14.0462C25.1708 13.9833 25.2758 13.9833 25.3391 14.0462L26.9557 15.8095C27.0186 15.8724 27.0186 15.9774 26.9557 16.0403L26.2211 16.7119C26.1787 16.7752 26.0528 16.7752 25.9899 16.7119Z" fill="#3DE25C"/>
        <path d="M26.1369 17.1319H26.0952C25.8852 17.1319 25.6961 17.0269 25.5494 16.8798L24.1641 15.3895C24.017 15.2424 23.9541 15.0328 23.9541 14.8228C23.9541 14.6132 24.0591 14.4241 24.2061 14.277L24.6678 13.8571C24.8149 13.71 25.0248 13.6471 25.2348 13.6471C25.4448 13.6471 25.6336 13.7521 25.7806 13.8991L27.166 15.3895C27.313 15.5365 27.3759 15.7465 27.3759 15.9565C27.3759 16.1665 27.271 16.3552 27.1239 16.5023L26.6622 16.9222C26.5148 17.0477 26.3257 17.1319 26.1369 17.1319ZM24.8774 14.8437L26.1369 16.2082L26.4728 15.8932L25.2132 14.5287L24.8774 14.8437Z" fill="#4C2F1B"/>
    </g>
    <defs>
        <clipPath id="clip0_89_2455">
            <rect width="31.9256" height="32" fill="white" transform="translate(4.75 4)"/>
        </clipPath>
    </defs>
</svg>
