<svg width="41" height="40" viewBox="0 0 41 40" fill="none" xmlns="http://www.w3.org/2000/svg">
    <g clip-path="url(#clip0_89_2389)">
        <path d="M8.4165 6.90547V30.0641C8.4165 31.0937 9.24155 31.9218 10.2679 31.9218H33.2319C34.8825 31.9218 35.7278 29.9228 34.5602 28.7316L11.5962 5.59333C10.429 4.40207 8.4165 5.22975 8.4165 6.90547Z" fill="#FCDB9A"/>
        <path d="M5.57824 9.00543L9.26116 5.3307C9.70392 4.9069 10.8711 5.37099 11.294 5.81517L34.2174 29.1151C34.5397 29.4379 35.1029 30.6699 34.4187 31.5985L31.4399 34.4456C31.0978 34.9301 30.7155 34.9504 30.2926 34.5262L6.2223 10.9637C5.73937 10.4996 5.09531 9.48991 5.57824 9.00543Z" fill="#F7C18B"/>
        <path d="M30.8771 36.0001C30.4948 36.0001 29.9916 35.8792 29.4685 35.3539L5.41716 11.8118C5.21631 11.6303 4.25 10.6206 4.25 9.44968C4.25 8.96521 4.43099 8.50066 4.77355 8.17783L8.43661 4.50309C9.52343 3.4531 11.4154 4.26086 12.1195 4.98756L35.043 28.287C35.6667 28.8928 36.4516 30.7705 35.3648 32.2846L35.2239 32.4462L32.3056 35.2326C31.8628 35.7981 31.3596 35.9593 30.9972 36.0001H30.8771ZM6.6448 9.59094C6.72559 9.75259 6.8664 9.95452 7.04739 10.1361L30.8365 33.436L33.5332 30.8719C33.7147 30.5287 33.4732 30.0239 33.3924 29.9433L10.469 6.64337C10.3683 6.5424 10.0867 6.42151 9.8854 6.36083L6.6448 9.59094Z" fill="#4C2F1B"/>
        <path d="M24.8995 31.1136C24.0339 31.1136 23.5311 30.5282 23.1082 30.003C23.0278 29.9224 22.9674 29.8214 22.8667 29.7404L8.97951 15.6481L8.9592 15.6278C8.21449 14.7797 7.89269 13.6491 8.09399 12.5385C8.29528 11.4278 8.9592 10.4589 9.96568 9.91372C11.1532 9.24769 12.7631 8.41956 13.2866 8.238C13.6287 8.11711 13.9307 7.97539 14.2128 7.83412C14.7964 7.57151 15.3398 7.3089 16.024 7.3089C17.7346 7.3089 19.1233 8.80306 22.7259 13.6084C25.5034 17.3234 28.9851 20.2511 31.541 22.4113C32.4667 23.1986 33.2719 23.8651 33.8554 24.4302C34.2377 24.8137 34.439 25.3186 34.4192 25.8836C34.3388 27.2161 32.9699 28.5287 32.4468 28.9122L32.2658 29.0535L26.1877 30.6889C25.8252 30.8918 25.4028 31.1136 24.8995 31.1136Z" fill="#FF9988"/>
        <path d="M24.8998 32.0409C23.6257 32.0409 22.8954 31.1856 22.4116 30.6196L22.3755 30.5784C22.3154 30.5182 22.2473 30.4503 22.1967 30.3819L8.28696 16.263L8.27613 16.2385C7.31658 15.1541 6.91941 13.7501 7.16629 12.3592C7.41588 10.9714 8.26665 9.78286 9.50016 9.0978C10.545 8.49878 12.3386 7.57919 12.947 7.35688C13.1582 7.27266 13.3437 7.19026 13.5297 7.10876L13.9138 6.94032C14.5073 6.67862 15.1798 6.38205 16.0039 6.38205C18.2195 6.38205 19.8859 8.31133 23.4375 13.0487C26.1356 16.6642 29.5639 19.5483 32.067 21.6538L32.1095 21.6895C32.8988 22.347 33.7966 23.1045 34.4745 23.7402C35.0639 24.3129 35.3591 25.0908 35.3036 25.9284C35.1691 27.9913 33.004 29.6199 32.9823 29.6344L32.6411 29.8807L32.2593 29.9903L26.5309 31.5333L26.4993 31.5533C25.9938 31.8775 25.4558 32.0409 24.8998 32.0409ZM16.0039 8.2158C15.5097 8.2158 15.08 8.41864 14.5357 8.67536C14.2541 8.80848 13.935 8.95925 13.5631 9.09962C13.1555 9.23545 11.5966 10.0418 10.3915 10.7092C9.65135 11.1172 9.14179 11.8285 8.99375 12.6603C8.84436 13.4992 9.08041 14.3523 9.64142 15.0002L23.539 29.1047C23.6333 29.2106 23.7254 29.3188 23.8103 29.4184C24.1898 29.8644 24.4643 30.1868 24.8993 30.1868C25.1494 30.1868 25.4062 30.0777 25.7519 29.8228L31.8093 28.1873L31.8463 28.1602C32.4647 27.7038 33.4021 26.6434 33.4517 25.8179C33.4693 25.5218 33.3746 25.2669 33.1769 25.0804C32.5915 24.5153 31.7795 23.8298 30.8394 23.0356C28.2794 20.8741 24.773 17.9134 21.9544 14.1485C18.4827 9.49127 17.2036 8.2158 16.0039 8.2158Z" fill="#4C2F1B"/>
        <path d="M21.1562 29.3976C18.1773 29.3976 15.1583 27.8229 13.0853 25.1981C9.66375 20.8777 9.80457 15.0423 13.4076 12.1753C14.6957 11.1457 16.3056 10.6006 18.0365 10.6006C21.0153 10.6006 24.0339 12.1753 26.1073 14.8005C29.5289 19.1209 29.3881 24.9563 25.7851 27.8233C24.497 28.8525 22.887 29.3976 21.1562 29.3976Z" fill="#FF624D"/>
        <path d="M21.156 30.3244C17.891 30.3244 14.599 28.6234 12.3504 25.7736C8.62235 21.0688 8.83087 14.6466 12.8144 11.4572C14.2568 10.3031 16.0559 9.69366 18.016 9.69366C21.2612 9.69366 24.5528 11.3957 26.8221 14.2454C28.5922 16.4803 29.5455 19.1499 29.5062 21.762C29.4669 24.5601 28.3485 26.9748 26.3577 28.5604C24.9152 29.7145 23.1162 30.3244 21.156 30.3244ZM18.016 11.5274C16.4959 11.5274 15.0936 11.9992 13.9612 12.8916C10.7775 15.4385 10.7057 20.6916 13.8005 24.6022C15.7214 27.0119 18.471 28.4504 21.156 28.4504C22.6761 28.4504 24.0784 27.9786 25.2108 27.0862C28.3945 24.5389 28.4663 19.2862 25.3715 15.3756C23.4506 12.9654 20.7006 11.5274 18.016 11.5274Z" fill="#4C2F1B"/>
        <path d="M25.4429 20.2108C25.4429 20.5005 25.6771 20.736 25.9664 20.736C26.2553 20.736 26.4895 20.501 26.4895 20.2108C26.4895 19.921 26.2553 19.686 25.9664 19.686C25.6771 19.686 25.4429 19.921 25.4429 20.2108Z" fill="#FF7A6C"/>
        <path d="M8.97949 8.33896C8.97949 8.33896 11.9985 5.93652 13.9911 8.33896C15.9833 10.7418 14.6754 11.6302 17.2715 12.236C19.868 12.8414 18.3786 15.6078 19.9682 16.2739C21.5583 16.9399 24.6779 15.6884 24.7582 18.7171C24.839 21.7457 25.3017 21.6243 26.4891 22.6137C27.6969 23.603 30.6153 21.5437 30.8969 24.5117C31.1587 27.5 30.8161 27.4593 31.6615 28.469C33.1712 30.286 29.5885 31.4165 27.3142 31.0534C25.0399 30.7102 26.2675 29.9025 25.3621 29.1554C24.4563 28.4083 7.14796 9.10641 7.14796 9.10641C7.14796 9.10641 7.1281 8.60157 8.97949 8.33896Z" fill="#6CEA90"/>
        <path d="M28.2 32.0427C27.838 32.0427 27.4955 32.0224 27.1737 31.9617C25.6644 31.7195 25 31.2146 24.8592 30.1044C24.8389 29.9228 24.8389 29.9228 24.7784 29.8622C23.873 29.1151 9.36164 12.9428 6.4636 9.71224L6.24245 9.46955L6.22214 9.1268C6.18197 8.27875 6.98715 7.71323 8.59707 7.45062C9.98584 6.4613 12.7629 5.41131 14.6955 7.73315C15.6009 8.84381 15.9029 9.67149 16.1245 10.2773C16.3659 10.9637 16.4061 11.0647 17.4731 11.3069C19.5461 11.7914 19.8078 13.4069 19.9685 14.3962C20.0692 15.0831 20.15 15.3049 20.3309 15.3855C20.6731 15.5268 21.2363 15.5472 21.7797 15.5671C23.2087 15.6278 25.6238 15.7084 25.7046 18.6763C25.7651 20.8365 25.9257 20.9579 26.6303 21.503C26.7711 21.6239 26.9322 21.7452 27.1132 21.887C27.2743 22.0282 27.8981 21.9675 28.3007 21.9273C29.3676 21.8263 31.6013 21.6447 31.8428 24.4311C31.9236 25.3394 31.9434 25.9859 31.9633 26.45C32.0034 27.3991 32.0034 27.3991 32.3857 27.8632C33.0099 28.6102 33.1507 29.4787 32.7278 30.2257C31.9836 31.4976 29.8907 32.0427 28.2 32.0427ZM26.7106 29.9428C26.7909 29.9831 27.0126 30.0637 27.4553 30.1243C29.1257 30.3869 30.9572 29.7005 31.0981 29.2966C31.0981 29.2966 31.0782 29.2161 30.9572 29.0748C30.2125 28.1864 30.1521 27.7622 30.1119 26.551C30.092 26.1068 30.0717 25.4806 29.9914 24.6127C29.911 23.7447 29.7901 23.684 28.4618 23.8049C27.6164 23.8855 26.6704 23.9666 25.9257 23.3404C25.7646 23.2195 25.6238 23.0981 25.5033 22.9972C24.356 22.1088 23.9335 21.5433 23.8532 18.737C23.8329 17.6263 23.4307 17.5054 21.74 17.4448C21.0355 17.4244 20.2908 17.3841 19.6467 17.1215C18.4593 16.637 18.2986 15.5064 18.1573 14.6987C17.9962 13.7297 17.9158 13.3258 17.0908 13.1438C15.1988 12.6997 14.7962 11.9929 14.4139 10.923C14.2126 10.3982 14.0113 9.79238 13.3068 8.94433C11.918 7.2686 9.68435 9.00455 9.60356 9.08559L9.40226 9.24724L9.16079 9.28753C8.97981 9.30791 8.81868 9.3482 8.67786 9.36858C15.5409 17.0205 25.2821 27.8224 26.0065 28.4481C26.6307 28.953 26.7111 29.5588 26.7512 29.8816C26.6907 29.8821 26.7106 29.9025 26.7106 29.9428Z" fill="#4C2F1B"/>
        <path d="M5.33691 9.93408V33.0923C5.33691 34.1219 6.16196 34.95 7.1883 34.95H30.1524C31.8024 34.95 32.6483 32.951 31.4806 31.7602L8.51704 8.62193C7.34988 7.4506 5.33691 8.27873 5.33691 9.93408Z" fill="#FFE9B8"/>
        <path d="M7.18881 35.8968C5.65833 35.8968 4.41309 34.648 4.41309 33.1127V9.93456C4.41309 8.79039 5.08784 7.77753 6.13268 7.35463C6.46983 7.21608 6.82458 7.1459 7.18926 7.1459C7.9281 7.1459 8.65024 7.44474 9.17018 7.96679L32.1338 31.1245C32.9457 31.9391 33.1728 33.1054 32.7259 34.1685C32.2787 35.2348 31.2929 35.8972 30.1529 35.8972H7.18881V35.8968ZM7.20867 9.00365C7.05928 9.00365 6.93877 9.04576 6.86701 9.07066L6.81826 9.08968C6.3579 9.32059 6.26131 9.68734 6.26131 9.95403V33.1122C6.26131 33.6275 6.69505 34.063 7.20912 34.063H30.1727C30.439 34.063 30.805 33.9657 31.0348 33.5034C31.1368 33.2987 31.2135 32.8482 30.8538 32.4616L7.86446 9.27712C7.68619 9.09783 7.45916 9.00365 7.20867 9.00365Z" fill="#4C2F1B"/>
        <path d="M20.6128 13.8108C20.6128 14.1006 20.847 14.336 21.1359 14.336C21.4247 14.336 21.659 14.101 21.659 13.8108C21.659 13.521 21.4247 13.286 21.1359 13.286C20.847 13.286 20.6128 13.521 20.6128 13.8108Z" fill="#FF7461"/>
        <path d="M22.8467 14.7598C22.8467 15.0496 23.0809 15.2845 23.3698 15.2845C23.6586 15.2845 23.8929 15.0496 23.8929 14.7598C23.8929 14.47 23.6586 14.2346 23.3698 14.2346C23.0809 14.2346 22.8467 14.4695 22.8467 14.7598Z" fill="#FF7A6C"/>
        <path d="M8.61768 22.735C8.61768 23.3037 9.07714 23.7646 9.64402 23.7646C10.2109 23.7646 10.6704 23.3037 10.6704 22.735C10.6704 22.3669 10.4749 22.0273 10.1572 21.843C9.8399 21.6592 9.44859 21.6592 9.13085 21.843C8.8131 22.0273 8.61768 22.3669 8.61768 22.735Z" fill="#FFD899"/>
        <path d="M21.8203 31.1136C21.8203 31.6823 22.2798 32.1432 22.8467 32.1432C23.4135 32.1432 23.873 31.6823 23.873 31.1136C23.873 30.5449 23.4135 30.084 22.8467 30.084C22.2798 30.084 21.8203 30.5449 21.8203 31.1136Z" fill="#FFD899"/>
        <path d="M16.2251 24.8952C16.2251 25.2633 16.4205 25.6029 16.7383 25.7872C17.0556 25.971 17.4473 25.971 17.7646 25.7872C18.0824 25.6029 18.2778 25.2633 18.2778 24.8952C18.2778 24.5275 18.0824 24.1875 17.7646 24.0037C17.4473 23.8199 17.0556 23.8199 16.7383 24.0037C16.4205 24.1875 16.2251 24.5275 16.2251 24.8952Z" fill="#FFD899"/>
        <path d="M16.2251 29.9427C16.2251 30.3104 16.4205 30.6504 16.7383 30.8343C17.0556 31.0181 17.4473 31.0181 17.7646 30.8343C18.0824 30.6504 18.2778 30.3104 18.2778 29.9427C18.2778 29.5746 18.0824 29.2351 17.7646 29.0508C17.4473 28.8669 17.0556 28.8669 16.7383 29.0508C16.4205 29.2351 16.2251 29.5746 16.2251 29.9427Z" fill="#FFD899"/>
        <path d="M13.4277 26.6719C13.4277 27.0395 13.6236 27.3796 13.9409 27.5634C14.2586 27.7472 14.65 27.7472 14.9672 27.5634C15.285 27.3796 15.4804 27.0395 15.4804 26.6719C15.4804 26.3038 15.285 25.9642 14.9672 25.7804C14.65 25.5961 14.2582 25.5961 13.9409 25.7804C13.6236 25.9642 13.4277 26.3042 13.4277 26.6719Z" fill="#FFD899"/>
        <path d="M12.8037 19.2015C12.8037 19.5696 12.9991 19.9092 13.3169 20.0935C13.6342 20.2773 14.0259 20.2773 14.3432 20.0935C14.6605 19.9092 14.8564 19.5696 14.8564 19.2015C14.8564 18.8339 14.661 18.4938 14.3432 18.31C14.0255 18.1262 13.6342 18.1262 13.3169 18.31C12.9991 18.4934 12.8037 18.8339 12.8037 19.2015Z" fill="#FFD899"/>
        <path d="M8.1543 26.5709C8.1543 27.1396 8.61376 27.6005 9.18064 27.6005C9.74752 27.6005 10.207 27.1396 10.207 26.5709C10.207 26.2033 10.0116 25.8632 9.69381 25.6794C9.37652 25.4956 8.98476 25.4956 8.66747 25.6794C8.34973 25.8632 8.1543 26.2033 8.1543 26.5709Z" fill="#FFE3B6"/>
        <path d="M10.4287 30.2859C10.4287 30.6541 10.6241 30.9936 10.9419 31.1779C11.2592 31.3617 11.6509 31.3617 11.9682 31.1779C12.286 30.9936 12.4814 30.6541 12.4814 30.2859C12.4814 29.9183 12.286 29.5783 11.9682 29.3944C11.6509 29.2106 11.2592 29.2106 10.9419 29.3944C10.6241 29.5783 10.4287 29.9183 10.4287 30.2859Z" fill="#FFE3B6"/>
        <path d="M20.1699 27.6816C20.1699 28.2503 20.6294 28.7112 21.1963 28.7112C21.7631 28.7112 22.2226 28.2503 22.2226 27.6816C22.2226 27.1129 21.7631 26.652 21.1963 26.652C20.6294 26.6515 20.1699 27.1129 20.1699 27.6816Z" fill="#FFE3B6"/>
        <path d="M8.91895 18.4748C8.91895 19.0435 9.37886 19.5044 9.94529 19.5044C10.5122 19.5044 10.9716 19.0435 10.9716 18.4748C10.9716 18.1067 10.7762 17.7671 10.4585 17.5828C10.1407 17.399 9.74941 17.399 9.43212 17.5828C9.11483 17.7671 8.91895 18.1067 8.91895 18.4748Z" fill="#FFE3B6"/>
    </g>
    <defs>
        <clipPath id="clip0_89_2389">
            <rect width="31.6559" height="32" fill="white" transform="translate(4.25 4)"/>
        </clipPath>
    </defs>
</svg>
