<svg width="41" height="40" viewBox="0 0 41 40" fill="none" xmlns="http://www.w3.org/2000/svg">
    <g clip-path="url(#clip0_89_2307)">
        <path d="M10.577 29.0206C9.32658 29.0206 8.67356 28.4818 8.34214 28.0268C7.64697 27.0754 7.89902 25.932 8.03445 25.482C8.10442 25.2522 8.18379 24.9571 8.27217 24.6102C8.8274 22.4686 9.8634 18.4754 12.8634 16.5963C14.8834 15.3309 18.8727 14.8809 21.9336 14.8809C23.7904 14.8809 28.3677 15.0638 30.7707 16.7694C34.2981 19.2674 35.1888 25.8523 35.2264 26.1334C35.2313 26.1802 35.2358 26.2271 35.2358 26.2785C35.2358 27.9985 34.2142 29.0251 32.5018 29.0251H10.577V29.0206Z" fill="white"/>
        <path d="M10.5723 30C8.82964 30 7.92703 29.1266 7.54365 28.6059C6.86689 27.6816 6.702 26.4351 7.09111 25.1865C7.14512 25.02 7.21018 24.7718 7.28628 24.4812L7.31656 24.3653C7.91025 22.0868 9.0158 17.8458 12.3398 15.7633C14.5415 14.3873 18.7391 13.8974 21.9338 13.8974C24.3569 13.8974 28.7999 14.1653 31.3351 15.9605C35.1346 18.6529 36.1002 25.2555 36.198 25.9994C36.2111 26.0894 36.2152 26.1815 36.2152 26.269C36.2152 28.5352 34.7577 29.9996 32.502 29.9996H10.5723V30ZM21.9334 15.8697C18.253 15.8697 14.8942 16.4858 13.377 17.4397C10.7032 19.1157 9.73306 22.859 9.21179 24.8704C9.11809 25.2333 9.03749 25.544 8.96302 25.7832C8.76704 26.4219 8.828 27.0462 9.1271 27.4523C9.41433 27.8431 9.90082 28.0412 10.5723 28.0412H32.5012C33.6653 28.0412 34.2557 27.4482 34.2557 26.2789C34.2487 26.2296 33.4312 19.8613 30.2062 17.5745C28.6784 16.4915 25.6633 15.8697 21.9334 15.8697Z" fill="#4C2F1B"/>
        <path d="M10.5722 29.8779C8.88318 29.8779 8.01085 29.0354 7.64138 28.5336C6.98836 27.6413 6.8296 26.4346 7.20685 25.223C7.26086 25.0566 7.32673 24.8059 7.40366 24.5124L7.43393 24.3965C8.0264 22.1229 9.12131 17.9234 12.404 15.8668C14.5836 14.5048 18.7558 14.0198 21.9334 14.0198C24.3417 14.0198 28.7569 14.2849 31.2647 16.0608C35.022 18.7236 35.9798 25.2773 36.0768 26.0163C36.0895 26.1022 36.0928 26.1885 36.0928 26.2702C36.0928 28.4621 34.6828 29.8783 32.5012 29.8783H10.5722V29.8779ZM21.9334 15.7476C18.2313 15.7476 14.8479 16.3711 13.3128 17.3361C10.598 19.038 9.61967 22.8122 9.09431 24.84C9.00102 25.2 8.92123 25.5091 8.84718 25.7466C8.63973 26.4231 8.70765 27.0873 9.02925 27.525C9.34103 27.9487 9.85985 28.1637 10.5722 28.1637H32.5012C33.7286 28.1637 34.3772 27.5119 34.3772 26.2789C34.3407 25.9834 33.4983 19.7597 30.2761 17.4746C28.7287 16.3773 25.6878 15.7476 21.9334 15.7476Z" fill="#4C2F1B"/>
        <path d="M18.3457 28.3975V19.0804L24.7609 19.1507V28.3971H18.3457V28.3975Z" fill="#4C2F1B"/>
        <path d="M19.0079 19.7507L24.1027 19.8021V27.7317H19.0079V19.7507ZM17.6875 18.4105V29.0629H25.4235V18.4947L24.117 18.4807L19.0222 18.4244L17.6875 18.4105Z" fill="#4C2F1B"/>
        <path d="M5.22749 19.9916C7.62026 12.6032 14.0142 10.7603 21.573 10.7603C28.717 10.7603 34.3712 12.6036 37.1784 19.9965C39.8081 26.9205 27.9621 19.6126 21.573 19.6126C15.1836 19.6126 2.94806 27.0261 5.22749 19.9916Z" fill="#FF6C4A"/>
        <path d="M19.5397 11.062C19.5397 11.062 18.8351 15.3782 20.0949 19.3759C20.0949 19.3759 20.9439 19.029 22.7823 19.3525C22.7823 19.3525 21.2937 14.6894 22.3625 10.9867C22.3576 10.9822 20.9022 10.8651 19.5397 11.062Z" fill="#FFAF9F"/>
        <path d="M29.4892 12.0796C28.3259 17.3181 29.4892 21.2311 29.4892 21.2311L32.0746 22.0116C32.0746 22.0116 31.5321 17.0382 31.8206 13.3462C31.8206 13.3409 30.159 12.2953 29.4892 12.0796Z" fill="#FFAF9F"/>
        <path d="M29.9677 21.864C29.7836 21.0778 28.9952 17.2153 29.9436 12.2522C30.5582 12.551 31.5348 13.1942 31.881 13.4288C31.6543 16.8335 31.9951 21.2003 32.1154 22.5676L29.9677 21.864Z" fill="#FFAF9F"/>
        <path d="M20.2282 19.657C19.1999 15.8824 19.5964 11.8716 19.7093 10.9427C20.1901 10.8782 20.7261 10.8453 21.3055 10.8453C21.6185 10.8453 21.8865 10.8556 22.0743 10.8655C21.2711 14.3297 22.1459 18.3352 22.4765 19.6299C22.0718 19.5694 21.686 19.539 21.3263 19.539C20.8149 19.5394 20.4503 19.6019 20.2282 19.657Z" fill="#FFAF9F"/>
        <path d="M7.63785 24.5638C5.8089 24.5638 4.86006 23.7805 4.38584 23.1237C3.27497 21.5722 3.91367 19.6381 4.12316 19.0023C7.08425 10.0369 15.49 9 21.5554 9C27.5443 9 34.8552 10.1253 38.2529 18.8995C38.5041 19.5469 39.2672 21.5134 38.1915 23.0888C37.7504 23.7398 36.8548 24.5161 35.0958 24.5161C33.4027 24.5161 31.138 23.8039 28.7399 23.0506C26.2645 22.2746 23.4585 21.3951 21.5559 21.3951C19.6729 21.3951 16.8591 22.266 14.3767 23.0345C11.8444 23.8216 9.4578 24.5638 7.63785 24.5638ZM21.5554 10.9678C12.7597 10.9678 7.95699 13.636 5.98239 19.6188C5.62437 20.7075 5.62273 21.4769 5.97748 21.9696C6.27821 22.388 6.82117 22.5911 7.63744 22.5911C9.14356 22.5911 11.4034 21.8924 13.7957 21.153C16.5473 20.3027 19.3918 19.4231 21.555 19.4231C23.7539 19.4231 26.7121 20.3516 29.3217 21.1703C31.5819 21.8796 33.7157 22.5491 35.095 22.5491C35.8298 22.5491 36.3135 22.3634 36.5745 21.9807C36.9026 21.4995 36.854 20.726 36.4264 19.6175C33.4776 11.9957 27.2542 10.9678 21.5554 10.9678Z" fill="#4C2F1B"/>
        <path d="M7.63777 24.4414C5.85997 24.4414 4.94181 23.6855 4.48437 23.0518C3.41032 21.5517 4.03348 19.6619 4.23846 19.0409C7.17501 10.1504 15.528 9.12207 21.5554 9.12207C27.5058 9.12207 34.7684 10.2387 38.1395 18.9439C38.3845 19.5756 39.1309 21.4966 38.0912 23.0197C37.6661 23.6473 36.8019 24.3945 35.0957 24.3945C33.4214 24.3945 31.1649 23.6851 28.7762 22.9342C26.2918 22.1554 23.476 21.2734 21.5558 21.2734C19.6532 21.2734 16.8283 22.1484 14.3361 22.9199C11.8173 23.7024 9.43889 24.4414 7.63777 24.4414ZM21.5554 10.8458C12.6991 10.8458 7.86035 13.5398 5.86692 19.5801C5.49581 20.7091 5.49991 21.5139 5.8792 22.0412C6.20448 22.4937 6.77976 22.7131 7.63777 22.7131C9.16189 22.7131 11.4303 22.012 13.8321 21.2697C16.5747 20.4219 19.411 19.5452 21.5558 19.5452C23.7354 19.5452 26.6842 20.4704 29.286 21.2866C31.5548 21.9984 33.6976 22.6708 35.0957 22.6708C35.8739 22.6708 36.3903 22.4674 36.6755 22.0494C37.0278 21.5324 36.9836 20.7223 36.5405 19.5732C33.5642 11.8827 27.2955 10.8458 21.5554 10.8458Z" fill="#4C2F1B"/>
        <path d="M10.5306 13.4732C10.5306 13.4732 9.30966 18.1852 12.5817 21.5545L14.6713 20.9389C14.6713 20.9389 12.0944 17.6086 12.6104 12.276L10.5306 13.4732Z" fill="#FFAF9F"/>
        <path d="M12.7409 21.6856C9.90177 18.3846 10.6264 13.9183 10.7766 13.1559L12.394 12.1457C12.1088 16.9099 13.7814 20.144 14.3952 21.1571L12.7409 21.6856Z" fill="#FFAF9F"/>
    </g>
    <defs>
        <clipPath id="clip0_89_2307">
            <rect width="35" height="21" fill="white" transform="translate(3.75 9)"/>
        </clipPath>
    </defs>
</svg>
