<svg width="41" height="40" viewBox="0 0 41 40" fill="none" xmlns="http://www.w3.org/2000/svg">
    <g clip-path="url(#clip0_89_2337)">
        <path d="M20.8557 33.6954C20.5295 33.6954 20.2239 33.573 20.0201 33.3288L19.9999 33.3082L19.9793 33.2877C16.9431 29.4163 12.8885 25.28 11.6455 25.1985C11.0953 25.5041 10.4433 25.647 9.77077 25.647C7.85564 25.647 6.00112 24.4246 5.36972 22.7129C4.94181 21.6129 4.67698 19.351 7.61102 16.7633C10.8914 13.8903 13.907 11.6082 20.3253 10.6506C20.8957 10.5691 21.4257 10.5283 21.9146 10.5283C26.2955 10.5283 26.6213 13.9105 26.8049 15.7242C26.8457 16.1727 26.8865 16.58 26.968 16.8654C27.1105 17.3543 28.2719 18.9436 34.5477 24.2005C34.9958 24.5675 35.2405 25.1585 35.1795 25.7289C35.1181 26.3199 34.7718 26.829 34.2623 27.1144L34.0992 27.1959C22.9133 33.2061 21.4871 33.6954 20.8557 33.6954Z" fill="#E7A664"/>
        <path d="M20.8756 34.5578C20.3099 34.5578 19.7718 34.3227 19.3994 33.9124L19.3314 33.8441L19.316 33.814C16.5256 30.2747 13.1497 26.84 11.7803 26.1447L11.6951 26.1017L11.607 26.1381C11.0523 26.3676 10.4103 26.4892 9.75061 26.4892C7.45238 26.4892 5.31173 25.0615 4.54553 23.0174C4.14957 21.9486 3.59898 19.1369 7.03476 16.1352C10.4198 13.1557 13.5368 10.7979 20.1729 9.80657C20.7341 9.71327 21.3123 9.66626 21.8945 9.66626C24.0946 9.66626 25.7082 10.4629 26.6904 12.0343C27.4209 13.239 27.5583 14.6344 27.6582 15.653C27.6788 15.9887 27.721 16.3604 27.7629 16.5701L27.7691 16.6017L27.7849 16.63C28.1622 17.3091 29.739 19.0623 35.1072 23.5548C35.7801 24.1127 36.1257 24.9586 36.0324 25.8189C35.9575 26.6813 35.4495 27.4424 34.6734 27.8589L34.5162 27.9371C22.2089 34.5578 21.5911 34.5578 20.8756 34.5578ZM20.5979 32.7172C20.6309 32.7749 20.6978 32.8329 20.8351 32.8329C21.4871 32.8329 25.8599 30.6445 33.8319 26.3283C34.1029 26.1803 34.2833 25.9103 34.3138 25.6055C34.3443 25.3017 34.2227 25.0027 33.9887 24.8058L33.7918 24.6395C31.8102 22.9667 26.546 18.5238 26.1288 17.0432C26.0358 16.7042 25.9925 16.2572 25.9466 15.7837C25.7651 13.9127 25.5165 11.35 21.8948 11.35C21.4577 11.35 20.981 11.3908 20.437 11.4745C14.2475 12.4141 11.3337 14.6139 8.16753 17.3918C5.60521 19.6279 5.79584 21.4905 6.1378 22.4018C6.6557 23.7825 8.17524 24.7849 9.75098 24.7849C10.3317 24.7849 10.8463 24.6593 11.2801 24.411C11.3605 24.3629 11.47 24.3364 11.5846 24.3364C13.553 24.3364 18.7452 30.3698 20.5979 32.7172Z" fill="#4C2F1B"/>
        <path d="M20.6519 29.8037V32.9618C20.6519 33.4713 21.2021 33.8177 21.6708 33.573L34.9966 26.5843C35.2207 26.462 35.3837 26.2174 35.3837 25.9731V22.4279L21.0592 29.172C20.8149 29.2737 20.6519 29.5183 20.6519 29.8037Z" fill="#E7A664"/>
        <path d="M33.7939 25.9526C33.7939 25.5247 33.6922 25.4839 33.5493 25.4839C33.4068 25.4839 33.2845 25.8303 33.2845 26.2582C33.2845 26.6861 33.3862 26.8899 33.5291 26.8899C33.6922 26.8899 33.7939 26.3805 33.7939 25.9526ZM26.3773 27.7458C26.3773 27.3178 26.2756 27.2771 26.1327 27.2771C25.9902 27.2771 25.8679 27.6234 25.8679 28.0513C25.8679 28.4793 25.9696 28.6827 26.1125 28.6827C26.255 28.6831 26.3773 28.1737 26.3773 27.7458ZM25.9494 29.2535C25.9494 28.8256 25.8477 28.7849 25.7048 28.7849C25.5619 28.7849 25.4399 29.1312 25.4399 29.5591C25.4399 29.987 25.5417 30.1909 25.6846 30.1909C25.8274 30.1909 25.9494 29.6814 25.9494 29.2535ZM28.3332 29.1518C28.3332 28.7239 28.2315 28.6831 28.0886 28.6831C27.9461 28.6831 27.8238 29.0295 27.8238 29.4574C27.8238 29.8853 27.9255 30.0888 28.0684 30.0888C28.2315 30.0686 28.3332 29.5797 28.3332 29.1518ZM30.5135 27.6642C30.5135 27.3178 30.432 27.2771 30.3302 27.2771C30.2285 27.2771 30.1268 27.5625 30.1268 27.9088C30.1268 28.2552 30.2083 28.4183 30.3302 28.4183C30.4526 28.4179 30.5135 28.0106 30.5135 27.6642Z" fill="#DB914D"/>
        <path d="M21.3548 34.7517C21.0562 34.7517 20.7928 34.6757 20.5501 34.5199C20.0784 34.2298 19.8096 33.7519 19.8096 33.2072V30.0487C19.8096 29.4405 20.1611 28.9039 20.7271 28.6482L36.2252 21.3293V26.2181C36.2252 26.8113 35.9093 27.3288 35.3796 27.6029L22.0736 34.5919C21.7989 34.6963 21.5565 34.7517 21.3548 34.7517ZM21.5142 30.1409V32.9585L34.5418 26.1399V24.0169L21.5142 30.1409Z" fill="#4C2F1B"/>
        <path d="M28.4556 26.9101C28.4556 26.7066 28.4148 26.6655 28.3332 26.6655C28.2723 26.6655 28.2109 26.8286 28.2109 27.0526C28.2109 27.2767 28.2723 27.3582 28.3332 27.3582C28.3942 27.3586 28.4556 27.1345 28.4556 26.9101Z" fill="#DB914D"/>
        <path d="M21.0388 29.0295C20.713 29.0295 20.4074 28.9072 20.2035 28.6625L20.183 28.642L20.1624 28.6218C17.1266 24.7504 13.0719 20.6138 11.829 20.5326C11.2787 20.8382 10.6268 20.9811 9.95424 20.9811C8.03874 20.9811 6.18459 19.7583 5.55319 18.047C5.12528 16.9264 4.86008 14.6649 7.81469 12.0974C11.0955 9.22401 14.111 6.94194 20.5293 5.98437C21.0997 5.90283 21.6294 5.86206 22.1187 5.86206C26.4995 5.86206 26.8253 9.24421 27.009 11.0576C27.0497 11.5061 27.0905 11.9134 27.172 12.1988C27.3146 12.6881 28.476 14.2774 34.7518 19.5343C35.1999 19.9214 35.4445 20.4918 35.3831 21.0623C35.3222 21.6532 34.9758 22.1627 34.4664 22.4477L34.3033 22.5293C23.0762 28.5402 21.65 29.0295 21.0388 29.0295Z" fill="#F9D59A"/>
        <path d="M21.0779 29.8915C20.5126 29.8915 19.9742 29.6565 19.601 29.2462L19.5334 29.1782L19.5187 29.1488C16.7279 25.6084 13.3513 22.1737 11.9823 21.4784L11.8971 21.4354L11.809 21.4718C11.254 21.7014 10.6123 21.8229 9.95262 21.8229C7.65439 21.8229 5.5141 20.3952 4.74754 18.3508C4.33616 17.2926 3.75691 14.5088 7.23676 11.4686C10.6218 8.4894 13.7381 6.13203 20.3753 5.14031C20.9361 5.04702 21.5143 5 22.0972 5C24.297 5 25.9106 5.79669 26.8931 7.36802C27.6248 8.57388 27.761 9.96854 27.861 10.9867C27.8819 11.3257 27.9245 11.6971 27.966 11.9039L27.9722 11.9355L27.988 11.9637C28.3649 12.6425 29.9414 14.3949 35.3103 18.8885C35.9835 19.4461 36.3292 20.292 36.2355 21.1522C36.1602 22.015 35.6526 22.7761 34.8765 23.1926L34.7185 23.2716C22.4116 29.8915 21.7934 29.8915 21.0779 29.8915ZM20.8002 28.0715C20.8333 28.1292 20.9002 28.1872 21.0372 28.1872C21.6899 28.1872 26.0626 25.9988 34.0339 21.6826C34.3053 21.5346 34.4853 21.2643 34.5162 20.9594C34.5466 20.6557 34.4251 20.3567 34.1911 20.1598L33.9957 19.9949C32.0137 18.3218 26.7488 13.8778 26.3311 12.3972C26.2382 12.0581 26.1949 11.6111 26.1489 11.1377C25.9675 9.26698 25.7188 6.7043 22.0972 6.7043C21.6627 6.7043 21.1933 6.74397 20.6199 6.82881C14.4216 7.74965 11.6327 9.86239 8.36917 12.7468C5.80721 14.9823 5.99784 16.8449 6.33981 17.7565C6.85771 19.1372 8.37725 20.1396 9.95299 20.1396C10.5341 20.1396 11.0487 20.014 11.4821 19.766C11.5629 19.7176 11.6723 19.6911 11.7866 19.6911C13.7557 19.6907 18.9476 25.7241 20.8002 28.0715Z" fill="#4C2F1B"/>
        <path d="M20.8554 26.1972C20.6721 26.1972 20.4884 26.1157 20.3661 25.9731C20.142 25.7083 20.1828 25.3006 20.4476 25.0765L29.2295 17.7822C29.4944 17.5582 29.9021 17.5989 30.1261 17.8638C30.3502 18.1286 30.3094 18.5363 30.0446 18.7604L21.2627 26.0543C21.1408 26.1564 20.9979 26.1972 20.8554 26.1972ZM15.6187 21.0219C15.4354 21.0219 15.2521 20.9403 15.1298 20.7978C14.9054 20.533 14.9465 20.1253 15.2113 19.9012L24.625 12.0769C24.8898 11.8528 25.2975 11.8936 25.5216 12.1584C25.7457 12.4232 25.7049 12.8306 25.4401 13.0546L16.026 20.879C15.9041 20.9605 15.7612 21.0219 15.6187 21.0219ZM10.4636 17.293C10.2803 17.293 10.097 17.2114 9.97467 17.0689C9.75025 16.8041 9.79139 16.3964 10.0562 16.1723L19.4695 8.34799C19.7343 8.12394 20.142 8.16471 20.3661 8.42954C20.5902 8.69436 20.5494 9.10171 20.2846 9.32576L10.8713 17.1505C10.749 17.2522 10.6061 17.293 10.4636 17.293Z" fill="#E7A664"/>
        <path d="M19.8163 11.6082C26.1122 9.81538 24.1765 14.522 26.0513 15.235C27.4981 15.7852 30.3506 17.5986 28.15 19.0858C26.3569 20.3086 23.4228 24.5671 20.1424 21.6327C18.2883 20.0026 16.5766 21.0825 15.741 19.636C14.9058 18.1892 14.9873 17.7209 13.5813 17.6596C12.1752 17.5986 10.4232 15.6423 11.931 12.7898C13.9478 8.99997 18.0231 12.1177 19.8163 11.6082Z" fill="#F4E87C"/>
        <path d="M22.485 23.2834C21.609 23.2834 20.6716 22.9572 19.7343 22.1219C18.9398 21.4292 18.1857 21.3069 17.4522 21.2048C16.6577 21.0825 15.7611 20.9601 15.1907 19.9824C15.0074 19.6768 14.8851 19.4322 14.7628 19.2081C14.3349 18.393 14.3143 18.3523 13.5404 18.3119C12.6232 18.2711 11.6862 17.6595 11.1768 16.7431C10.7694 16.05 10.26 14.5628 11.3601 12.5254C12.9696 9.50978 15.8019 10.2433 17.6766 10.7325C18.4509 10.936 19.2252 11.1399 19.6531 11.0179C24.0949 9.7544 25.0323 11.5068 25.6229 13.4223C25.8268 14.115 25.9898 14.5224 26.2954 14.6447C26.4177 14.6855 29.372 15.8267 29.5964 17.6808C29.6574 18.1903 29.5149 18.944 28.5367 19.6165C28.1904 19.841 27.7827 20.2277 27.3345 20.6354C26.1327 21.694 24.4211 23.2834 22.485 23.2834ZM14.9461 11.5266C13.907 11.5266 13.1125 11.9138 12.4807 13.116C11.8897 14.2366 11.8082 15.2963 12.2772 16.1114C12.6236 16.7225 13.194 17.0281 13.6014 17.0483C15.0276 17.1097 15.374 17.6188 15.8834 18.6171C15.9855 18.821 16.1281 19.0656 16.2911 19.3506C16.5358 19.7785 16.8818 19.8601 17.6358 19.9618C18.4711 20.0841 19.49 20.2266 20.5699 21.1846C22.5871 22.9774 24.3597 21.6327 26.4582 19.697C26.9268 19.2691 27.3753 18.8617 27.7827 18.5763C28.1496 18.3115 28.3329 18.0669 28.3127 17.8223C28.2311 17.1703 26.9676 16.2535 25.8268 15.8256C24.9096 15.4792 24.6448 14.5826 24.4005 13.7881C23.9726 12.4027 23.6057 11.1799 19.9789 12.2194C19.2248 12.4232 18.3488 12.1988 17.3505 11.934C16.4337 11.7099 15.6392 11.5266 14.9461 11.5266Z" fill="#4C2F1B"/>
        <path d="M23.2601 14.583C23.097 14.583 22.9545 14.5015 22.873 14.3586C22.5266 13.686 22.221 13.4212 21.7725 13.462C21.5892 13.4825 21.3652 13.5435 21.1004 13.6453C20.387 13.8899 19.3887 14.1955 17.983 13.7268C16.292 13.1564 14.6619 13.1766 14.6413 13.1766C14.4172 13.1766 14.2134 12.9933 14.2134 12.7692C14.2134 12.5452 14.3967 12.3413 14.6207 12.3413C14.6821 12.3413 16.3933 12.3208 18.2475 12.9323C19.3883 13.3195 20.1626 13.0546 20.8352 12.8508C21.1408 12.7487 21.4056 12.6675 21.691 12.6469C22.8932 12.5452 23.4228 13.6045 23.6267 14.0122C23.7288 14.2157 23.6472 14.4809 23.4434 14.5826C23.3824 14.5628 23.3211 14.583 23.2601 14.583Z" fill="white"/>
        <path d="M18.1255 16.3964C18.1255 16.6326 18.6908 16.8243 19.3886 16.8243C20.0862 16.8243 20.6518 16.6326 20.6518 16.3964C20.6518 16.1602 20.0862 15.9685 19.3886 15.9685C18.6908 15.9685 18.1255 16.1602 18.1255 16.3964Z" fill="white"/>
        <path d="M13.6831 24.3023C13.6831 24.5274 13.7558 24.7096 13.8462 24.7096C13.9362 24.7096 14.0089 24.5271 14.0089 24.3023C14.0089 24.0771 13.9362 23.8949 13.8462 23.8949C13.7562 23.8949 13.6831 24.0771 13.6831 24.3023Z" fill="#DB914D"/>
        <path d="M17.3916 28.1942C17.3916 28.3856 17.4463 28.5406 17.5139 28.5406C17.5815 28.5406 17.6362 28.3856 17.6362 28.1942C17.6362 28.0028 17.5815 27.8478 17.5139 27.8478C17.4467 27.8475 17.3916 28.0025 17.3916 28.1942Z" fill="#DB914D"/>
        <path d="M9.95459 23.1408C9.95459 23.4108 10.0457 23.6297 10.1581 23.6297C10.2708 23.6297 10.3619 23.4108 10.3619 23.1408C10.3619 22.8709 10.2708 22.6516 10.1581 22.6516C10.0457 22.6516 9.95459 22.8709 9.95459 23.1408Z" fill="#DB914D"/>
        <path d="M15.5371 26.177C15.5371 26.447 15.6282 26.6659 15.7406 26.6659C15.8534 26.6659 15.9445 26.447 15.9445 26.177C15.9445 25.907 15.8534 25.6877 15.7406 25.6877C15.6282 25.6877 15.5371 25.9067 15.5371 26.177Z" fill="#DB914D"/>
        <path d="M7.06104 22.5499C7.06104 23.0564 7.16131 23.467 7.28509 23.467C7.40887 23.467 7.50915 23.0564 7.50915 22.5499C7.50915 22.0433 7.40887 21.6331 7.28509 21.6331C7.16131 21.6331 7.06104 22.0433 7.06104 22.5499Z" fill="#DB914D"/>
        <path d="M32.1841 25.7083C32.1841 25.3619 32.1026 25.3212 32.0008 25.3212C31.8987 25.3212 31.797 25.6066 31.797 25.9526C31.797 26.2989 31.8785 26.462 32.0008 26.462C32.1026 26.462 32.1841 26.0543 32.1841 25.7083ZM23.5653 30.3132C23.5653 30.0076 23.504 29.9668 23.382 29.9668C23.2803 29.9668 23.1987 30.2317 23.1987 30.5373C23.1987 30.8429 23.2803 31.006 23.382 31.006C23.4838 30.9854 23.5653 30.6188 23.5653 30.3132Z" fill="#DB914D"/>
        <path d="M24.7268 20.5939C24.6453 20.5939 24.5638 20.5734 24.4822 20.5124C24.2989 20.3901 24.2376 20.1253 24.3805 19.9214C24.7878 19.3304 25.7865 18.6377 26.52 18.1286C26.7033 18.0063 26.8664 17.884 26.9887 17.8024C26.7643 17.5989 26.2144 17.293 25.5625 17.171C24.2993 16.9264 23.6675 15.3576 23.6268 15.2963C23.5452 15.0719 23.6473 14.8276 23.8508 14.7461C24.0749 14.6645 24.3195 14.7663 24.401 14.9701C24.5436 15.2963 25.0324 16.1925 25.705 16.335C26.4995 16.4981 27.6814 17.0076 27.8647 17.6595C27.9257 17.9042 27.8647 18.1488 27.6814 18.3119C27.5389 18.4342 27.3149 18.5973 26.9681 18.8213C26.3364 19.2492 25.3788 19.9214 25.0526 20.3901C24.9917 20.5326 24.8694 20.5939 24.7268 20.5939Z" fill="white"/>
        <path d="M16.3409 9.27103C16.4004 9.42897 16.8926 9.39003 17.4402 9.18361C17.9879 8.97755 18.3835 8.68223 18.3243 8.52429C18.2648 8.36635 17.7726 8.40529 17.225 8.61171C16.6773 8.81777 16.2814 9.11272 16.3409 9.27103Z" fill="#F8CD8C"/>
        <path d="M20.3554 27.0589C20.4197 27.229 20.6676 27.3153 21.0067 27.2852C21.3457 27.2547 21.7236 27.1125 21.9984 26.912C22.2731 26.7111 22.4028 26.4826 22.3385 26.3122C22.2742 26.1421 22.0263 26.0558 21.6873 26.0859C21.3483 26.116 20.9703 26.2585 20.6956 26.4591C20.4208 26.66 20.2915 26.8885 20.3554 27.0589Z" fill="#F8CD8C"/>
        <path d="M8.98828 18.4555C9.09296 18.692 9.61196 18.692 10.1468 18.4551C10.6819 18.2186 11.0309 17.8348 10.9262 17.5978C10.8215 17.3613 10.3029 17.3613 9.7677 17.5978C9.23254 17.8351 8.8836 18.219 8.98828 18.4555Z" fill="#F8CD8C"/>
        <path d="M29.8896 21.373C29.9943 21.6095 30.513 21.6095 31.0481 21.3726C31.5833 21.1361 31.9322 20.7523 31.8275 20.5153C31.7229 20.2784 31.2039 20.2788 30.6687 20.5153C30.1339 20.7526 29.785 21.1365 29.8896 21.373Z" fill="#F8CD8C"/>
        <path d="M23.064 25.7472C23.1687 25.9838 23.6873 25.9838 24.2225 25.7472C24.7576 25.5107 25.1066 25.1265 25.0015 24.8899C24.8968 24.6534 24.3782 24.6534 23.843 24.8903C23.3079 25.1269 22.9593 25.5107 23.064 25.7472Z" fill="#F8CD8C"/>
        <path d="M7.74513 14.4026C7.80427 14.5363 8.10252 14.5341 8.41105 14.3975C8.71996 14.2609 8.92197 14.0416 8.86321 13.9079C8.80407 13.7742 8.50582 13.7764 8.19691 13.913C7.88838 14.0497 7.68599 14.2686 7.74513 14.4026Z" fill="#F8CD8C"/>
    </g>
    <defs>
        <clipPath id="clip0_89_2337">
            <rect width="32" height="29.7517" fill="white" transform="translate(4.25 5)"/>
        </clipPath>
    </defs>
</svg>

