<svg width="80" height="22" viewBox="0 0 80 22" fill="none" xmlns="http://www.w3.org/2000/svg">
    <path d="M3.81743 21.28L6.10543 14.999L6.14943 16.847L0.968431 4.12H3.72943L7.40343 13.536H6.69943L10.2744 4.12H12.9254L6.30343 21.28H3.81743ZM19.1273 16.33C17.9246 16.33 16.8686 16.0697 15.9593 15.549C15.05 15.0283 14.3386 14.306 13.8253 13.382C13.3193 12.458 13.0663 11.3947 13.0663 10.192C13.0663 8.894 13.3156 7.76833 13.8143 6.815C14.313 5.85433 15.006 5.11 15.8933 4.582C16.7806 4.054 17.8073 3.79 18.9733 3.79C20.2053 3.79 21.2503 4.07967 22.1083 4.659C22.9736 5.231 23.6153 6.04133 24.0333 7.09C24.4513 8.13867 24.609 9.37433 24.5063 10.797H21.8773V9.829C21.87 8.53833 21.6426 7.596 21.1953 7.002C20.748 6.408 20.044 6.111 19.0833 6.111C17.998 6.111 17.1913 6.44833 16.6633 7.123C16.1353 7.79033 15.8713 8.76933 15.8713 10.06C15.8713 11.2627 16.1353 12.194 16.6633 12.854C17.1913 13.514 17.9613 13.844 18.9733 13.844C19.626 13.844 20.187 13.701 20.6563 13.415C21.133 13.1217 21.4996 12.7 21.7563 12.15L24.3743 12.942C23.9196 14.0127 23.2156 14.845 22.2623 15.439C21.3163 16.033 20.2713 16.33 19.1273 16.33ZM15.0353 10.797V8.795H23.2083V10.797H15.0353Z" fill="#518DD3"/>
    <path d="M31.1377 16.33C29.671 16.33 28.4793 16 27.5627 15.34C26.646 14.68 26.0887 13.7523 25.8907 12.557L28.5967 12.139C28.736 12.7257 29.044 13.1877 29.5207 13.525C29.9973 13.8623 30.5987 14.031 31.3247 14.031C31.9627 14.031 32.454 13.9063 32.7987 13.657C33.1507 13.4003 33.3267 13.052 33.3267 12.612C33.3267 12.3407 33.2607 12.1243 33.1287 11.963C33.004 11.7943 32.7253 11.633 32.2927 11.479C31.86 11.325 31.1963 11.1307 30.3017 10.896C29.3043 10.632 28.5123 10.3497 27.9257 10.049C27.339 9.741 26.9173 9.378 26.6607 8.96C26.404 8.542 26.2757 8.036 26.2757 7.442C26.2757 6.70133 26.47 6.056 26.8587 5.506C27.2473 4.956 27.79 4.53433 28.4867 4.241C29.1833 3.94033 30.0047 3.79 30.9507 3.79C31.8747 3.79 32.6923 3.933 33.4037 4.219C34.1223 4.505 34.7017 4.912 35.1417 5.44C35.5817 5.968 35.853 6.58767 35.9557 7.299L33.2497 7.783C33.1837 7.277 32.9527 6.87733 32.5567 6.584C32.168 6.29067 31.6473 6.12567 30.9947 6.089C30.3713 6.05233 29.869 6.14767 29.4877 6.375C29.1063 6.595 28.9157 6.90667 28.9157 7.31C28.9157 7.53733 28.9927 7.73167 29.1467 7.893C29.3007 8.05433 29.6087 8.21567 30.0707 8.377C30.54 8.53833 31.2367 8.73633 32.1607 8.971C33.1067 9.213 33.862 9.49167 34.4267 9.807C34.9987 10.115 35.4093 10.4853 35.6587 10.918C35.9153 11.3507 36.0437 11.875 36.0437 12.491C36.0437 13.6863 35.6073 14.625 34.7347 15.307C33.8693 15.989 32.6703 16.33 31.1377 16.33Z" fill="#518DD3" fill-opacity="0.4"/>
    <path d="M31.1377 16.33C29.671 16.33 28.4793 16 27.5627 15.34C26.646 14.68 26.0887 13.7523 25.8907 12.557L28.5967 12.139C28.736 12.7257 29.044 13.1877 29.5207 13.525C29.9973 13.8623 30.5987 14.031 31.3247 14.031C31.9627 14.031 32.454 13.9063 32.7987 13.657C33.1507 13.4003 33.3267 13.052 33.3267 12.612C33.3267 12.3407 33.2607 12.1243 33.1287 11.963C33.004 11.7943 32.7253 11.633 32.2927 11.479C31.86 11.325 31.1963 11.1307 30.3017 10.896C29.3043 10.632 28.5123 10.3497 27.9257 10.049C27.339 9.741 26.9173 9.378 26.6607 8.96C26.404 8.542 26.2757 8.036 26.2757 7.442C26.2757 6.70133 26.47 6.056 26.8587 5.506C27.2473 4.956 27.79 4.53433 28.4867 4.241C29.1833 3.94033 30.0047 3.79 30.9507 3.79C31.8747 3.79 32.6923 3.933 33.4037 4.219C34.1223 4.505 34.7017 4.912 35.1417 5.44C35.5817 5.968 35.853 6.58767 35.9557 7.299L33.2497 7.783C33.1837 7.277 32.9527 6.87733 32.5567 6.584C32.168 6.29067 31.6473 6.12567 30.9947 6.089C30.3713 6.05233 29.869 6.14767 29.4877 6.375C29.1063 6.595 28.9157 6.90667 28.9157 7.31C28.9157 7.53733 28.9927 7.73167 29.1467 7.893C29.3007 8.05433 29.6087 8.21567 30.0707 8.377C30.54 8.53833 31.2367 8.73633 32.1607 8.971C33.1067 9.213 33.862 9.49167 34.4267 9.807C34.9987 10.115 35.4093 10.4853 35.6587 10.918C35.9153 11.3507 36.0437 11.875 36.0437 12.491C36.0437 13.6863 35.6073 14.625 34.7347 15.307C33.8693 15.989 32.6703 16.33 31.1377 16.33Z" fill="#2FB044" fill-opacity="0.4"/>
    <path d="M46.26 16V10.28C46.26 9.906 46.2343 9.49167 46.183 9.037C46.1317 8.58233 46.0107 8.146 45.82 7.728C45.6367 7.30267 45.358 6.95433 44.984 6.683C44.6173 6.41167 44.1187 6.276 43.488 6.276C43.1507 6.276 42.817 6.331 42.487 6.441C42.157 6.551 41.8563 6.74167 41.585 7.013C41.321 7.277 41.1083 7.64367 40.947 8.113C40.7857 8.575 40.705 9.169 40.705 9.895L39.132 9.224C39.132 8.212 39.3263 7.29533 39.715 6.474C40.111 5.65267 40.6903 5 41.453 4.516C42.2157 4.02467 43.1543 3.779 44.269 3.779C45.149 3.779 45.875 3.92567 46.447 4.219C47.019 4.51233 47.4737 4.88633 47.811 5.341C48.1483 5.79567 48.3977 6.27967 48.559 6.793C48.7203 7.30633 48.823 7.794 48.867 8.256C48.9183 8.71067 48.944 9.081 48.944 9.367V16H46.26ZM38.021 16V0.159999H40.386V8.498H40.705V16H38.021ZM56.6515 16.33C55.4635 16.33 54.4258 16.0623 53.5385 15.527C52.6512 14.9917 51.9618 14.2547 51.4705 13.316C50.9865 12.37 50.7445 11.2847 50.7445 10.06C50.7445 8.81333 50.9938 7.72067 51.4925 6.782C51.9912 5.84333 52.6842 5.11 53.5715 4.582C54.4588 4.054 55.4855 3.79 56.6515 3.79C57.8468 3.79 58.8882 4.05767 59.7755 4.593C60.6628 5.12833 61.3522 5.869 61.8435 6.815C62.3348 7.75367 62.5805 8.83533 62.5805 10.06C62.5805 11.292 62.3312 12.381 61.8325 13.327C61.3412 14.2657 60.6518 15.0027 59.7645 15.538C58.8772 16.066 57.8395 16.33 56.6515 16.33ZM56.6515 13.844C57.7075 13.844 58.4922 13.492 59.0055 12.788C59.5188 12.084 59.7755 11.1747 59.7755 10.06C59.7755 8.90867 59.5152 7.992 58.9945 7.31C58.4738 6.62067 57.6928 6.276 56.6515 6.276C55.9402 6.276 55.3535 6.43733 54.8915 6.76C54.4368 7.07533 54.0995 7.519 53.8795 8.091C53.6595 8.65567 53.5495 9.312 53.5495 10.06C53.5495 11.2113 53.8098 12.1317 54.3305 12.821C54.8585 13.503 55.6322 13.844 56.6515 13.844ZM66.6944 16L63.0644 4.098L65.6604 4.12L67.9814 11.743L70.3354 4.12H72.5684L74.9114 11.743L77.2434 4.12H79.8394L76.2094 16H74.1414L71.4464 7.827L68.7624 16H66.6944Z" fill="#2FB044"/>
</svg>
