<svg xmlns="http://www.w3.org/2000/svg" width="16" height="17" viewBox="0 0 16 17" fill="none">
    <path fill-rule="evenodd" clip-rule="evenodd" d="M7.27319 14.0371C7.65308 14.502 8.34746 14.5021 8.72747 14.0373C10.0696 12.3957 12.8002 8.79932 12.8002 6.71161C12.8002 3.94361 10.6522 2.09961 8.0002 2.09961C5.3482 2.09961 3.2002 3.94761 3.2002 6.71161C3.2002 8.79645 5.93112 12.3947 7.27319 14.0371ZM9.60007 6.49982C9.60007 7.38348 8.88372 8.09982 8.00007 8.09982C7.11641 8.09982 6.40007 7.38348 6.40007 6.49982C6.40007 5.61617 7.11641 4.89982 8.00007 4.89982C8.88372 4.89982 9.60007 5.61617 9.60007 6.49982Z" fill="#999999"/>
</svg>
