<svg width="24" height="24" viewBox="0 0 24 24" fill="none" xmlns="http://www.w3.org/2000/svg">
    <mask id="mask0_122_2157" style="mask-type:alpha" maskUnits="userSpaceOnUse" x="2" y="2" width="20" height="20">
        <rect x="2" y="2" width="20" height="20" fill="#D9D9D9"/>
    </mask>
    <g mask="url(#mask0_122_2157)">
        <path d="M19.5222 22L12.8722 15.35C12.3444 15.7722 11.7375 16.1065 11.0514 16.3528C10.3653 16.5991 9.63519 16.7222 8.86111 16.7222C6.94352 16.7222 5.32078 16.0583 3.99289 14.7304C2.6643 13.4018 2 11.7787 2 9.86111C2 7.94352 2.6643 6.32043 3.99289 4.99183C5.32078 3.66394 6.94352 3 8.86111 3C10.7787 3 12.4018 3.66394 13.7304 4.99183C15.0583 6.32043 15.7222 7.94352 15.7222 9.86111C15.7222 10.6352 15.5991 11.3653 15.3528 12.0514C15.1065 12.7375 14.7722 13.3444 14.35 13.8722L21 20.5222L19.5222 22ZM8.86111 14.6111C10.1806 14.6111 11.3023 14.1495 12.2262 13.2262C13.1495 12.3023 13.6111 11.1806 13.6111 9.86111C13.6111 8.54167 13.1495 7.41996 12.2262 6.496C11.3023 5.57274 10.1806 5.11111 8.86111 5.11111C7.54167 5.11111 6.41996 5.57274 5.496 6.496C4.57274 7.41996 4.11111 8.54167 4.11111 9.86111C4.11111 11.1806 4.57274 12.3023 5.496 13.2262C6.41996 14.1495 7.54167 14.6111 8.86111 14.6111Z" fill="#1C1B1F"/>
    </g>
</svg>
